<?xml version="1.0" encoding="UTF-8" standalone="no"?>
<svg
   xmlns:dc="http://purl.org/dc/elements/1.1/"
   xmlns:cc="http://creativecommons.org/ns#"
   xmlns:rdf="http://www.w3.org/1999/02/22-rdf-syntax-ns#"
   xmlns:svg="http://www.w3.org/2000/svg"
   xmlns="http://www.w3.org/2000/svg"
   xmlns:xlink="http://www.w3.org/1999/xlink"
   xmlns:sodipodi="http://sodipodi.sourceforge.net/DTD/sodipodi-0.dtd"
   xmlns:inkscape="http://www.inkscape.org/namespaces/inkscape"
   inkscape:version="1.0.1 (3bc2e813f5, 2020-09-07)"
   sodipodi:docname="system-suspend-hibernate.svg"
   id="svg5"
   version="1.1"
   viewBox="0 0 32 32">
  <metadata
     id="metadata9">
    <rdf:RDF>
      <cc:Work
         rdf:about="">
        <dc:format>image/svg+xml</dc:format>
        <dc:type
           rdf:resource="http://purl.org/dc/dcmitype/StillImage" />
      </cc:Work>
    </rdf:RDF>
  </metadata>
  <sodipodi:namedview
     inkscape:document-rotation="0"
     inkscape:current-layer="svg5"
     inkscape:window-maximized="1"
     inkscape:window-y="0"
     inkscape:window-x="0"
     inkscape:cy="4.9433502"
     inkscape:cx="-6.5159408"
     inkscape:zoom="9.879509"
     showgrid="false"
     id="namedview7"
     inkscape:window-height="1007"
     inkscape:window-width="1920"
     inkscape:pageshadow="2"
     inkscape:pageopacity="0"
     guidetolerance="10"
     gridtolerance="10"
     objecttolerance="10"
     borderopacity="1"
     bordercolor="#666666"
     pagecolor="#ffffff" />
  <defs
     id="defs3051">
    <linearGradient
       inkscape:collect="always"
       id="linearGradient844">
      <stop
         style="stop-color:#00ffff;stop-opacity:1"
         offset="0"
         id="stop840" />
      <stop
         style="stop-color:#6262ff;stop-opacity:1"
         offset="1"
         id="stop842" />
    </linearGradient>
    <style
       id="current-color-scheme"
       type="text/css">
      .ColorScheme-Text {
        color:#eff0f1;
      }
      </style>
    <linearGradient
       inkscape:collect="always"
       xlink:href="#linearGradient844"
       id="linearGradient1062"
       x1="-178.10001"
       y1="16.201357"
       x2="-173.76666"
       y2="16.201357"
       gradientUnits="userSpaceOnUse"
       gradientTransform="matrix(0.92307576,0,0,0.92307576,175.76272,1.0471676)" />
    <linearGradient
       inkscape:collect="always"
       xlink:href="#linearGradient844"
       id="linearGradient1070"
       x1="-172.03333"
       y1="16.201357"
       x2="-167.7"
       y2="16.201357"
       gradientUnits="userSpaceOnUse"
       gradientTransform="matrix(0.92307576,0,0,0.92307576,175.76272,1.0471676)" />
    <linearGradient
       inkscape:collect="always"
       xlink:href="#linearGradient844"
       id="linearGradient1054"
       x1="-185.89999"
       y1="16.200001"
       x2="-159.89999"
       y2="16.200001"
       gradientUnits="userSpaceOnUse"
       gradientTransform="matrix(0.92307576,0,0,0.92307576,175.76272,1.0471676)" />
  </defs>
  <g
     id="g896">
    <path
       d="m 13.362983,22.400988 a 2.0023976,2.0023976 0 0 1 -1.999997,-2.000001 v -8.79999 a 1.9999976,1.9999976 0 0 1 3.999989,0 v 8.79999 a 2.0023976,2.0023976 0 0 1 -1.999992,2.000001 z m 0,-11.999989 a 1.1999981,1.1999981 0 0 0 -1.199993,1.199998 v 8.79999 a 1.1999986,1.1999986 0 0 0 2.399993,0 v -8.79999 a 1.1999981,1.1999981 0 0 0 -1.2,-1.199998 z"
       id="path8-53"
       style="fill:url(#linearGradient1062);fill-opacity:1.0;stroke-width:0.400003" />
    <path
       d="m 18.962974,22.400988 a 2.0023976,2.0023976 0 0 1 -1.999993,-2.000001 v -8.79999 a 1.9999976,1.9999976 0 0 1 3.999989,0 v 8.79999 a 2.0023976,2.0023976 0 0 1 -1.999996,2.000001 z m 0,-11.999989 a 1.1999981,1.1999981 0 0 0 -1.200001,1.199998 v 8.79999 a 1.1999983,1.1999983 0 0 0 2.399994,0 v -8.79999 a 1.1999981,1.1999981 0 0 0 -1.199993,-1.199998 z"
       id="path10"
       style="fill:url(#linearGradient1070);fill-opacity:1.0;stroke-width:0.400003" />
    <path
       d="m 16.162966,28.00098 c -2.324074,0 -4.577137,-0.663668 -6.519172,-1.922454 -0.281637,-0.181221 -0.359999,-0.555908 -0.178777,-0.83754 0.18123,-0.279188 0.555915,-0.359999 0.837555,-0.178769 1.743669,1.131422 3.768975,1.728968 5.860394,1.728968 5.948573,0 10.7902,-4.839179 10.7902,-10.79019 0,-5.948564 -4.839185,-10.7901915 -10.7902,-10.7901915 -5.948558,0 -10.790194,4.8416275 -10.790194,10.7901915 0,2.635098 0.959993,5.172238 2.703675,7.143664 0.220406,0.249795 0.198365,0.631835 -0.05141,0.854689 C 7.772787,24.219757 7.390758,24.197719 7.17034,23.945438 5.230758,21.753606 4.163,18.929936 4.163,16.000959 4.163,9.3838248 9.545845,4.0009746 16.162981,4.0009746 c 6.617135,0 11.999991,5.3828502 11.999991,11.9999844 0,6.617134 -5.382856,11.999986 -11.999991,11.999986 z"
       id="path6-36-3-3-3-3"
       style="fill:url(#linearGradient1054);fill-opacity:1;stroke-width:0.0244895" />
  </g>
</svg>
