<?xml version="1.0" encoding="UTF-8" standalone="no"?>
<svg
   xmlns:dc="http://purl.org/dc/elements/1.1/"
   xmlns:cc="http://creativecommons.org/ns#"
   xmlns:rdf="http://www.w3.org/1999/02/22-rdf-syntax-ns#"
   xmlns:svg="http://www.w3.org/2000/svg"
   xmlns="http://www.w3.org/2000/svg"
   xmlns:xlink="http://www.w3.org/1999/xlink"
   xmlns:sodipodi="http://sodipodi.sourceforge.net/DTD/sodipodi-0.dtd"
   xmlns:inkscape="http://www.inkscape.org/namespaces/inkscape"
   id="svg3642"
   width="205"
   height="210.939"
   version="1"
   sodipodi:docname="background.svg"
   inkscape:version="1.0.1 (3bc2e813f5, 2020-09-07)">
  <metadata
     id="metadata106">
    <rdf:RDF>
      <cc:Work
         rdf:about="">
        <dc:format>image/svg+xml</dc:format>
        <dc:type
           rdf:resource="http://purl.org/dc/dcmitype/StillImage" />
      </cc:Work>
    </rdf:RDF>
  </metadata>
  <sodipodi:namedview
     pagecolor="#ffffff"
     bordercolor="#666666"
     borderopacity="1"
     objecttolerance="10"
     gridtolerance="10"
     guidetolerance="10"
     inkscape:pageopacity="0"
     inkscape:pageshadow="2"
     inkscape:window-width="1920"
     inkscape:window-height="1009"
     id="namedview104"
     showgrid="false"
     inkscape:zoom="1.488582"
     inkscape:cx="241.91848"
     inkscape:cy="47.020754"
     inkscape:window-x="0"
     inkscape:window-y="0"
     inkscape:window-maximized="1"
     inkscape:current-layer="svg3642"
     inkscape:document-rotation="0"
     inkscape:lockguides="false" />
  <defs
     id="defs3644">
    <radialGradient
       id="radialGradient4263"
       cx="984"
       cy="905.362"
       r="8.5"
       fx="984"
       fy="905.362"
       gradientTransform="matrix(-1.411767,-9.899721e-6,9.8996845e-6,-1.4117618,1527.1698,1407.3046)"
       gradientUnits="userSpaceOnUse"
       xlink:href="#linearGradient4465" />
    <linearGradient
       id="linearGradient4465">
      <stop
         id="stop4467"
         offset="0"
         style="stop-color:#000000;stop-opacity:0.50980395" />
      <stop
         id="stop4469"
         offset="1"
         style="stop-color:#000000;stop-opacity:0" />
    </linearGradient>
    <linearGradient
       id="linearGradient4259"
       x1="83.6"
       x2="83.6"
       y1="-969.362"
       y2="-957.362"
       gradientTransform="matrix(0.71428571,0,0,1,-317.71429,1250.3622)"
       gradientUnits="userSpaceOnUse"
       xlink:href="#linearGradient4465" />
    <radialGradient
       id="radialGradient3382"
       cx="984"
       cy="905.362"
       r="8.5"
       fx="984"
       fy="905.362"
       gradientTransform="matrix(7.8257357e-6,1.411771,-1.4117668,7.8257123e-6,1466.1525,-1260.0507)"
       gradientUnits="userSpaceOnUse"
       xlink:href="#linearGradient4465" />
    <linearGradient
       id="linearGradient4452"
       x1="-260"
       x2="-260"
       y1="281"
       y2="293"
       gradientUnits="userSpaceOnUse"
       xlink:href="#linearGradient4465" />
    <radialGradient
       id="radialGradient4255"
       cx="982.909"
       cy="906.453"
       r="8.5"
       fx="982.909"
       fy="906.453"
       gradientTransform="matrix(1.4117577,5.5406049e-6,-5.5406032e-6,1.4117573,-1199.6245,-1200.5582)"
       gradientUnits="userSpaceOnUse"
       xlink:href="#linearGradient4465" />
    <radialGradient
       id="radialGradient4275"
       cx="984"
       cy="905.362"
       r="8.5"
       fx="984"
       fy="905.362"
       gradientTransform="matrix(-1.6187099e-5,-1.4117565,1.4117775,-1.618734e-5,-1140.1539,1468.3221)"
       gradientUnits="userSpaceOnUse"
       xlink:href="#linearGradient4465" />
    <linearGradient
       id="linearGradient4385"
       x1="83.6"
       x2="83.6"
       y1="-969.362"
       y2="-957.362"
       gradientTransform="matrix(0.71428571,0,0,1,-317.71429,1250.3622)"
       gradientUnits="userSpaceOnUse"
       xlink:href="#linearGradient4465" />
    <linearGradient
       id="linearGradient4387"
       x1="83.6"
       x2="83.6"
       y1="-969.362"
       y2="-957.362"
       gradientTransform="matrix(0.71428571,0,0,1,-317.71429,1250.3622)"
       gradientUnits="userSpaceOnUse"
       xlink:href="#linearGradient4465" />
  </defs>
  <rect
     style="opacity:0.9;fill:#1d202a;fill-opacity:1;stroke:none"
     id="center"
     width="50"
     height="50"
     x="23.000004"
     y="81.139961" />
  <g
     id="bottomleft"
     transform="translate(6,64.13889)">
    <path
       style="color:#383c4a;opacity:0.9;fill:#1d202a;fill-opacity:1;stroke:none"
       id="path87"
       d="m 17.000005,74.000025 v -7 h -7 v 2 c 0,2.77 2.23,5 5,5 z" />
  </g>
  <g
     id="left"
     transform="translate(6,64.13889)">
    <g
       id="shadow-left-3"
       transform="matrix(-1,0,0,1,298,-240)">
      <rect
         id="rect33"
         width="7"
         height="1"
         x="278"
         y="257"
         transform="translate(3,2)"
         style="fill:#3498db;fill-opacity:0" />
    </g>
    <path
       style="color:#383c4a;opacity:0.9;fill:#1d202a;fill-opacity:1;stroke:none"
       id="path71"
       d="m 10.000015,16.999925 v 50 l 7,10e-6 v -50 z" />
  </g>
  <g
     id="right"
     transform="translate(6,64.13889)">
    <g
       id="shadow-right-2"
       transform="translate(-214,-240)">
      <rect
         id="rect47"
         width="7"
         height="1"
         x="278"
         y="257"
         transform="translate(3,2)"
         style="fill:#3498db;fill-opacity:0" />
    </g>
    <path
       style="color:#383c4a;opacity:0.9;fill:#1d202a;fill-opacity:1;stroke:none"
       id="path79"
       d="m 73.999995,16.999935 v 50 l -7,1e-5 v -50 z" />
  </g>
  <g
     id="bottom"
     transform="translate(6,64.13889)">
    <g
       id="shadow-bottom-9"
       transform="rotate(90,269,55)">
      <rect
         id="rect41"
         width="7"
         height="1"
         x="278"
         y="257"
         transform="translate(3,2)"
         style="fill:#3498db;fill-opacity:0" />
    </g>
    <path
       style="color:#383c4a;opacity:0.9;fill:#1d202a;fill-opacity:1;stroke:none"
       id="path95"
       d="m 16.999975,74.000065 h 50.00002 v -7 h -50.00001 z" />
  </g>
  <g
     id="bottomright"
     transform="translate(6,64.13889)">
    <path
       style="color:#383c4a;opacity:0.9;fill:#1d202a;fill-opacity:1;stroke:none"
       id="path103"
       d="m 66.999995,74.000025 v -7 h 7 v 2 c 0,2.77 -2.23,5 -5,5 z" />
  </g>
  <g
     id="top"
     transform="translate(6,64.13889)">
    <g
       id="shadow-top-6"
       transform="matrix(0,-1,-1,0,324,298)">
      <rect
         id="rect53"
         width="7"
         height="1"
         x="278"
         y="257"
         transform="translate(3,2)"
         style="fill:#3498db;fill-opacity:0" />
    </g>
    <path
       style="color:#383c4a;opacity:0.9;fill:#1d202a;fill-opacity:1;stroke:none"
       id="path111"
       d="m 16.999975,9.999935 h 50.00002 v 7 h -50.00001 z" />
  </g>
  <g
     id="topright"
     transform="translate(6,64.13889)">
    <path
       style="color:#383c4a;opacity:0.9;fill:#1d202a;fill-opacity:1;stroke:none"
       id="path119"
       d="m 66.999995,9.999935 v 7 h 7 v -2 c 0,-2.77 -2.23,-5 -5,-5 z" />
  </g>
  <g
     id="topleft"
     transform="translate(6,64.13889)">
    <path
       style="color:#383c4a;opacity:0.9;fill:#1d202a;fill-opacity:1;stroke:none"
       id="path63"
       d="m 17.000005,9.999935 v 7 h -7 v -2 c 0,-2.77 2.23,-5 5,-5 z" />
  </g>
  <path
     style="opacity:1;fill:url(#radialGradient4275);fill-opacity:1;stroke:none"
     id="shadow-topleft"
     d="m 121,79.139 h 10 v -2 c 0,-2.77 2.23,-5 5,-5 h 2 v -10 h -17 z" />
  <g
     id="shadow-left"
     transform="matrix(-1,0,0,1,419,-177.861)">
    <rect
       style="opacity:1;fill:url(#linearGradient4385);fill-opacity:1;stroke:none"
       id="rect4267"
       width="50"
       height="10"
       x="-307"
       y="288"
       transform="rotate(-90)" />
    <rect
       style="fill:#3498db;fill-opacity:0"
       id="rect4269"
       width="7"
       height="1"
       x="278"
       y="257"
       transform="translate(3,2)" />
  </g>
  <path
     style="opacity:1;fill:url(#radialGradient3382);fill-opacity:1;stroke:none"
     id="shadow-bottomright"
     d="m 205,129.139 h -10 v 2 c 0,2.77 -2.23,5 -5,5 h -2 v 10 h 17 z" />
  <g
     id="shadow-bottom"
     transform="rotate(90,298.4305,146.5695)">
    <rect
       style="opacity:1;fill:url(#linearGradient4387);fill-opacity:1;stroke:none"
       id="rect3389"
       width="50"
       height="10"
       x="-307"
       y="288"
       transform="rotate(-90)" />
    <rect
       style="fill:#3498db;fill-opacity:0"
       id="rect4241"
       width="7"
       height="1"
       x="278"
       y="257"
       transform="translate(3,2)" />
  </g>
  <g
     id="shadow-right"
     transform="translate(-93,-177.861)">
    <rect
       style="opacity:1;fill:url(#linearGradient4452);fill-opacity:1;stroke:none"
       id="rect4251"
       width="50"
       height="10"
       x="-307"
       y="288"
       transform="rotate(-90)" />
    <rect
       style="fill:#3498db;fill-opacity:0"
       id="rect4253"
       width="7"
       height="1"
       x="278"
       y="257"
       transform="translate(3,2)" />
  </g>
  <g
     id="shadow-top"
     transform="matrix(0,-1,-1,0,445,360.139)">
    <rect
       style="opacity:1;fill:url(#linearGradient4259);fill-opacity:1;stroke:none"
       id="rect4279"
       width="50"
       height="10"
       x="-307"
       y="288"
       transform="rotate(-90)" />
    <rect
       style="fill:#3498db;fill-opacity:0"
       id="rect4281"
       width="7"
       height="1"
       x="278"
       y="257"
       transform="translate(3,2)" />
  </g>
  <path
     style="opacity:1;fill:url(#radialGradient4255);fill-opacity:1;stroke:none"
     id="shadow-topright"
     d="m 188,62.139 v 10 h 2 c 2.77,0 5,2.23 5,5 v 2 h 10 v -17 z" />
  <path
     style="opacity:1;fill:url(#radialGradient4263);fill-opacity:1;stroke:none"
     id="shadow-bottomleft"
     d="m 138,146.139 v -10 h -2 c -2.77,0 -5,-2.23 -5,-5 v -2 h -10 v 17 z" />
  <g
     style="fill:#000000;fill-opacity:0"
     id="shadow-center"
     transform="matrix(0.31570315,0,0,0.31570315,187.29422,193.8907)">
    <path
       style="fill:#000000;fill-opacity:0;stroke:none"
       id="path3642"
       d="m -6.0000004,-7.998957 v 62 H 56 v -62 z" />
  </g>
  <rect
     style="opacity:0.01;fill:#008080;fill-opacity:1;stroke:none"
     id="shadow-hint-right-margin"
     width="10"
     height="4"
     x="195"
     y="102.13996" />
  <rect
     style="opacity:0.01;fill:#008080;fill-opacity:1;stroke:none"
     id="shadow-hint-bottom-margin"
     width="4"
     height="10"
     x="161"
     y="136.13992" />
  <rect
     style="opacity:0.01;fill:#008080;fill-opacity:1;stroke:none"
     id="shadow-hint-left-margin"
     width="10"
     height="4"
     x="121"
     y="102.13996" />
  <rect
     style="opacity:0.01;fill:#008080;fill-opacity:1;stroke:none"
     id="shadow-hint-top-margin"
     width="4"
     height="10"
     x="162"
     y="62.139957" />
  <rect
     style="opacity:0.01;fill:#008080;fill-opacity:1;stroke:none"
     id="hint-top-margin"
     width="4"
     height="2"
     x="44.999992"
     y="74.139969" />
  <rect
     style="opacity:0.01;fill:#008080;fill-opacity:1;stroke:none"
     id="hint-bottom-margin"
     width="4"
     height="2"
     x="44.999992"
     y="136.13992" />
  <rect
     style="opacity:0.01;fill:#008080;fill-opacity:1;stroke:none"
     id="hint-left-margin"
     width="2"
     height="4"
     x="16"
     y="102.13996" />
  <rect
     style="opacity:0.01;fill:#008080;fill-opacity:1;stroke:none"
     id="hint-right-margin"
     width="2"
     height="4"
     x="77.999969"
     y="102.13996" />
  <rect
     style="opacity:0.01;fill:#008080;fill-opacity:1;stroke:none"
     id="hint-tile-center"
     width="5"
     height="5"
     x="200"
     y="0.039999999" />
</svg>
