<?xml version="1.0" encoding="UTF-8" standalone="no"?>
<svg
   xmlns:dc="http://purl.org/dc/elements/1.1/"
   xmlns:cc="http://creativecommons.org/ns#"
   xmlns:rdf="http://www.w3.org/1999/02/22-rdf-syntax-ns#"
   xmlns:svg="http://www.w3.org/2000/svg"
   xmlns="http://www.w3.org/2000/svg"
   xmlns:xlink="http://www.w3.org/1999/xlink"
   xmlns:sodipodi="http://sodipodi.sourceforge.net/DTD/sodipodi-0.dtd"
   xmlns:inkscape="http://www.inkscape.org/namespaces/inkscape"
   width="32"
   height="32"
   version="1.1"
   id="svg12"
   sodipodi:docname="applications.svg"
   inkscape:version="1.0.1 (3bc2e813f5, 2020-09-07)">
  <metadata
     id="metadata18">
    <rdf:RDF>
      <cc:Work
         rdf:about="">
        <dc:format>image/svg+xml</dc:format>
        <dc:type
           rdf:resource="http://purl.org/dc/dcmitype/StillImage" />
      </cc:Work>
    </rdf:RDF>
  </metadata>
  <defs
     id="defs16">
    <linearGradient
       inkscape:collect="always"
       id="linearGradient841">
      <stop
         style="stop-color:#007b99;stop-opacity:1"
         offset="0"
         id="stop837" />
      <stop
         style="stop-color:#cca300;stop-opacity:1"
         offset="1"
         id="stop839" />
    </linearGradient>
    <linearGradient
       inkscape:collect="always"
       xlink:href="#linearGradient841"
       id="linearGradient843"
       x1="7.0267839"
       y1="6.5398946"
       x2="25.451874"
       y2="25.298555"
       gradientUnits="userSpaceOnUse" />
    <linearGradient
       inkscape:collect="always"
       xlink:href="#linearGradient841"
       id="linearGradient851"
       x1="9.1749382"
       y1="9.0154152"
       x2="21.14255"
       y2="20.734476"
       gradientUnits="userSpaceOnUse" />
    <linearGradient
       inkscape:collect="always"
       xlink:href="#linearGradient841"
       id="linearGradient859"
       x1="6.5559154"
       y1="6.36413"
       x2="25.795177"
       y2="25.404806"
       gradientUnits="userSpaceOnUse" />
    <linearGradient
       inkscape:collect="always"
       xlink:href="#linearGradient841"
       id="linearGradient867"
       x1="8.5071554"
       y1="9.0284061"
       x2="21.219027"
       y2="22.045496"
       gradientUnits="userSpaceOnUse" />
  </defs>
  <sodipodi:namedview
     pagecolor="#ffffff"
     bordercolor="#666666"
     borderopacity="1"
     objecttolerance="10"
     gridtolerance="10"
     guidetolerance="10"
     inkscape:pageopacity="0"
     inkscape:pageshadow="2"
     inkscape:window-width="1920"
     inkscape:window-height="1009"
     id="namedview14"
     showgrid="false"
     inkscape:zoom="13.876971"
     inkscape:cx="3.1025348"
     inkscape:cy="20.552676"
     inkscape:window-x="0"
     inkscape:window-y="0"
     inkscape:window-maximized="1"
     inkscape:current-layer="svg12"
     inkscape:document-rotation="0" />
  <g
     id="applications-other"
     style="clip-rule:evenodd;fill-rule:evenodd;stroke-linejoin:round;stroke-miterlimit:1.41421"
     transform="translate(-2e-6,1.5e-5)">
    <path
       style="fill:#ffffc1;fill-opacity:0;stroke-width:1.00213"
       d="M 22,0 V 32 H 54 V 0 Z"
       transform="translate(-21.999998,-1.5e-5)"
       id="rect817"
       inkscape:connector-curvature="0" />
    <path
       d="m 15.770719,29.148584 c -2.517755,0 -4.958571,-0.71898 -7.062448,-2.082653 -0.305102,-0.196327 -0.39,-0.602245 -0.193674,-0.907347 0.196327,-0.302449 0.602245,-0.39 0.907347,-0.193673 1.88898,1.225714 4.083061,1.873061 6.348775,1.873061 6.444285,0 11.689387,-5.242448 11.689387,-11.689386 0,-6.4442853 -5.242449,-11.6893868 -11.689387,-11.6893868 -6.444285,0 -11.689387,5.2451015 -11.689387,11.6893868 0,2.854694 1.04,5.603265 2.92898,7.738979 0.238775,0.270612 0.214898,0.68449 -0.05571,0.925917 -0.273266,0.238776 -0.687143,0.214898 -0.925919,-0.05837 -2.101224,-2.374489 -3.257959,-5.433468 -3.257959,-8.606529 0,-7.1685713 5.831428,-12.9999988 12.999999,-12.9999988 7.168571,0 12.999999,5.8314275 12.999999,12.9999988 0,7.168571 -5.831428,12.999998 -12.999999,12.999998 z"
       id="path6"
       style="clip-rule:evenodd;fill:url(#linearGradient843);fill-opacity:1;fill-rule:nonzero;stroke-width:0.0265306;stroke-linejoin:round;stroke-miterlimit:1.41421" />
    <path
       inkscape:connector-curvature="0"
       id="path3825"
       style="color:#31363b;clip-rule:evenodd;fill:url(#linearGradient851);fill-opacity:1;fill-rule:nonzero;stroke-width:0.774999;stroke-linejoin:round;stroke-miterlimit:1.41421"
       d="m 16.827393,8.317915 -2.579647,0.247692 v 10.612198 l 2.5521,-0.385294 v -4.524498 l 3.434023,5.019881 2.689888,-0.853164 -3.516703,-4.82722 3.544272,-4.552024 -2.745019,-0.627484 -3.40646,4.552022 z m -5.848313,2.587001 c -0.0292,0.0031 -0.06069,0.01112 -0.08262,0.03298 l -1.0142265,1.01278 c -0.04261,0.04273 -0.04783,0.107994 -0.01658,0.159633 l 1.1850975,1.954005 c -0.210431,0.353232 -0.381302,0.73214 -0.501596,1.133865 l -2.1772745,0.451365 c -0.06059,0.01254 -0.104735,0.07009 -0.104735,0.132098 v 1.43111 c 0,0.06051 0.04607,0.112336 0.104732,0.126597 l 2.1111295,0.511892 c 0.112884,0.465081 0.287287,0.910136 0.518137,1.315513 l -1.2236855,1.860434 c -0.03413,0.0519 -0.02752,0.121281 0.01658,0.165137 l 1.0142185,1.012777 c 0.0428,0.04253 0.108264,0.04783 0.15985,0.01652 l 1.91821,-1.161391 c 0.376236,0.216917 0.783556,0.390678 1.212665,0.5064 l 0.446464,2.146659 c 0.01252,0.06069 0.06477,0.104625 0.126787,0.104625 h 1.433137 c 0.06016,0 0.112498,-0.04034 0.126782,-0.09908 l 0.529157,-2.15767 c 0.442552,-0.119157 0.859794,-0.296044 1.245731,-0.522905 l 1.890648,1.238452 c 0.05214,0.03388 0.121166,0.02736 0.165364,-0.01654 l 1.008712,-1.01278 c 0.04288,-0.04272 0.05343,-0.108116 0.022,-0.159623 l -0.689012,-1.133875 -0.225997,0.07157 c -0.03267,0.01042 -0.06878,-0.0041 -0.08818,-0.03297 0,0 -0.435239,-0.639333 -1.003201,-1.469618 -0.679253,1.327266 -2.064523,2.234714 -3.660025,2.234714 -2.267168,0 -4.106495,-1.836717 -4.106495,-4.100667 0,-1.665312 0.997253,-3.095641 2.425326,-3.737387 v -1.056825 c -0.259917,0.09087 -0.511006,0.200441 -0.749655,0.330256 -2.99e-4,-1.94e-4 4.91e-4,-0.0048 0,-0.0053 l -1.934759,-1.265946 c -0.02604,-0.01699 -0.05347,-0.01945 -0.08263,-0.01656 z"
       class="ColorScheme-Text" />
  </g>
  <g
     id="22-22-applications-other"
     style="clip-rule:evenodd;fill-rule:evenodd;stroke-linejoin:round;stroke-miterlimit:1.41421"
     transform="matrix(0.6875,0,0,0.6875,31.999999,10.00001)">
    <path
       style="fill:#ffffc1;fill-opacity:0;stroke-width:1.00213"
       d="M 22,0 V 32 H 54 V 0 Z"
       transform="translate(-21.999998,-1.5e-5)"
       id="rect817-5"
       inkscape:connector-curvature="0" />
    <path
       d="m 15.770719,29.148584 c -2.517755,0 -4.958571,-0.71898 -7.062448,-2.082653 -0.305102,-0.196327 -0.39,-0.602245 -0.193674,-0.907347 0.196327,-0.302449 0.602245,-0.39 0.907347,-0.193673 1.88898,1.225714 4.083061,1.873061 6.348775,1.873061 6.444285,0 11.689387,-5.242448 11.689387,-11.689386 0,-6.4442853 -5.242449,-11.6893868 -11.689387,-11.6893868 -6.444285,0 -11.689387,5.2451015 -11.689387,11.6893868 0,2.854694 1.04,5.603265 2.92898,7.738979 0.238775,0.270612 0.214898,0.68449 -0.05571,0.925917 -0.273266,0.238776 -0.687143,0.214898 -0.925919,-0.05837 -2.101224,-2.374489 -3.257959,-5.433468 -3.257959,-8.606529 0,-7.1685713 5.831428,-12.9999988 12.999999,-12.9999988 7.168571,0 12.999999,5.8314275 12.999999,12.9999988 0,7.168571 -5.831428,12.999998 -12.999999,12.999998 z"
       id="path6-3"
       style="clip-rule:evenodd;fill:url(#linearGradient859);fill-opacity:1;fill-rule:nonzero;stroke-width:0.0265306;stroke-linejoin:round;stroke-miterlimit:1.41421" />
    <path
       inkscape:connector-curvature="0"
       id="path3825-5"
       style="color:#31363b;clip-rule:evenodd;fill:url(#linearGradient867);fill-opacity:1;fill-rule:nonzero;stroke-width:0.774999;stroke-linejoin:round;stroke-miterlimit:1.41421"
       d="m 16.827393,8.317915 -2.579647,0.247692 v 10.612198 l 2.5521,-0.385294 v -4.524498 l 3.434023,5.019881 2.689888,-0.853164 -3.516703,-4.82722 3.544272,-4.552024 -2.745019,-0.627484 -3.40646,4.552022 z m -5.848313,2.587001 c -0.0292,0.0031 -0.06069,0.01112 -0.08262,0.03298 l -1.0142265,1.01278 c -0.04261,0.04273 -0.04783,0.107994 -0.01658,0.159633 l 1.1850975,1.954005 c -0.210431,0.353232 -0.381302,0.73214 -0.501596,1.133865 l -2.1772745,0.451365 c -0.06059,0.01254 -0.104735,0.07009 -0.104735,0.132098 v 1.43111 c 0,0.06051 0.04607,0.112336 0.104732,0.126597 l 2.1111295,0.511892 c 0.112884,0.465081 0.287287,0.910136 0.518137,1.315513 l -1.2236855,1.860434 c -0.03413,0.0519 -0.02752,0.121281 0.01658,0.165137 l 1.0142185,1.012777 c 0.0428,0.04253 0.108264,0.04783 0.15985,0.01652 l 1.91821,-1.161391 c 0.376236,0.216917 0.783556,0.390678 1.212665,0.5064 l 0.446464,2.146659 c 0.01252,0.06069 0.06477,0.104625 0.126787,0.104625 h 1.433137 c 0.06016,0 0.112498,-0.04034 0.126782,-0.09908 l 0.529157,-2.15767 c 0.442552,-0.119157 0.859794,-0.296044 1.245731,-0.522905 l 1.890648,1.238452 c 0.05214,0.03388 0.121166,0.02736 0.165364,-0.01654 l 1.008712,-1.01278 c 0.04288,-0.04272 0.05343,-0.108116 0.022,-0.159623 l -0.689012,-1.133875 -0.225997,0.07157 c -0.03267,0.01042 -0.06878,-0.0041 -0.08818,-0.03297 0,0 -0.435239,-0.639333 -1.003201,-1.469618 -0.679253,1.327266 -2.064523,2.234714 -3.660025,2.234714 -2.267168,0 -4.106495,-1.836717 -4.106495,-4.100667 0,-1.665312 0.997253,-3.095641 2.425326,-3.737387 v -1.056825 c -0.259917,0.09087 -0.511006,0.200441 -0.749655,0.330256 -2.99e-4,-1.94e-4 4.91e-4,-0.0048 0,-0.0053 l -1.934759,-1.265946 c -0.02604,-0.01699 -0.05347,-0.01945 -0.08263,-0.01656 z"
       class="ColorScheme-Text" />
  </g>
</svg>
