<?xml version="1.0" encoding="UTF-8" standalone="no"?>
<svg
   xmlns:dc="http://purl.org/dc/elements/1.1/"
   xmlns:cc="http://creativecommons.org/ns#"
   xmlns:rdf="http://www.w3.org/1999/02/22-rdf-syntax-ns#"
   xmlns:svg="http://www.w3.org/2000/svg"
   xmlns="http://www.w3.org/2000/svg"
   xmlns:xlink="http://www.w3.org/1999/xlink"
   xmlns:sodipodi="http://sodipodi.sourceforge.net/DTD/sodipodi-0.dtd"
   xmlns:inkscape="http://www.inkscape.org/namespaces/inkscape"
   width="32"
   height="32"
   version="1.1"
   id="svg12"
   sodipodi:docname="bookmarks.svg"
   inkscape:version="1.0.1 (3bc2e813f5, 2020-09-07)">
  <metadata
     id="metadata18">
    <rdf:RDF>
      <cc:Work
         rdf:about="">
        <dc:format>image/svg+xml</dc:format>
        <dc:type
           rdf:resource="http://purl.org/dc/dcmitype/StillImage" />
      </cc:Work>
    </rdf:RDF>
  </metadata>
  <defs
     id="defs16">
    <linearGradient
       inkscape:collect="always"
       id="linearGradient852">
      <stop
         style="stop-color:#00a4cc;stop-opacity:1"
         offset="0"
         id="stop848" />
      <stop
         style="stop-color:#7f2aff;stop-opacity:1"
         offset="1"
         id="stop850" />
    </linearGradient>
    <linearGradient
       inkscape:collect="always"
       id="linearGradient844">
      <stop
         style="stop-color:#7f2aff;stop-opacity:1"
         offset="0"
         id="stop840" />
      <stop
         style="stop-color:#00a4cc;stop-opacity:1"
         offset="1"
         id="stop842" />
    </linearGradient>
    <linearGradient
       inkscape:collect="always"
       xlink:href="#linearGradient844"
       id="linearGradient846"
       x1="6.7811356"
       y1="6.2141614"
       x2="26.315166"
       y2="24.520647"
       gradientUnits="userSpaceOnUse" />
    <linearGradient
       inkscape:collect="always"
       xlink:href="#linearGradient844"
       id="linearGradient862"
       x1="34.01503"
       y1="20.842861"
       x2="51.89003"
       y2="20.842861"
       gradientUnits="userSpaceOnUse" />
    <linearGradient
       inkscape:collect="always"
       xlink:href="#linearGradient852"
       id="linearGradient870"
       x1="37.485817"
       y1="21.235323"
       x2="48.236931"
       y2="21.235323"
       gradientUnits="userSpaceOnUse" />
    <linearGradient
       inkscape:collect="always"
       xlink:href="#linearGradient844"
       id="linearGradient857"
       x1="8.125"
       y1="16.177999"
       x2="23.680719"
       y2="16.177999"
       gradientUnits="userSpaceOnUse" />
  </defs>
  <sodipodi:namedview
     pagecolor="#ffffff"
     bordercolor="#666666"
     borderopacity="1"
     objecttolerance="10"
     gridtolerance="10"
     guidetolerance="10"
     inkscape:pageopacity="0"
     inkscape:pageshadow="2"
     inkscape:window-width="1920"
     inkscape:window-height="1009"
     id="namedview14"
     showgrid="false"
     inkscape:zoom="11.313709"
     inkscape:cx="15.414761"
     inkscape:cy="18.993618"
     inkscape:window-x="0"
     inkscape:window-y="0"
     inkscape:window-maximized="1"
     inkscape:current-layer="svg12"
     inkscape:document-rotation="0">
    <inkscape:grid
       type="xygrid"
       id="grid879" />
  </sodipodi:namedview>
  <g
     id="g997" />
  <g
     id="g999"
     transform="translate(32,10)" />
  <g
     id="22-22-bookmarks">
    <g
       id="g990">
      <rect
         y="10"
         x="32"
         height="22"
         width="22"
         id="rect820-6"
         style="clip-rule:evenodd;fill:#2020ff;fill-opacity:0;fill-rule:evenodd;stroke-width:0.6875;stroke-linejoin:round;stroke-miterlimit:1.41421" />
      <path
         d="m 42.864822,26.180401 a 0.29791666,0.29791666 0 0 1 -0.210627,-0.08729 L 38.441654,21.88057 a 3.2770833,3.2770833 0 0 1 4.423168,-4.827442 3.2770833,3.2770833 0 0 1 4.423169,4.82625 L 43.07545,26.09192 a 0.29791666,0.29791666 0 0 1 -0.210628,0.08848 z m -2.106271,-9.297979 a 2.68125,2.68125 0 0 0 -1.895643,4.576893 l 4.001914,4.001915 4.001915,-4.001915 a 2.68125,2.68125 0 1 0 -3.791287,-3.791287 0.29791666,0.29791666 0 0 1 -0.421255,0 2.6636729,2.6636729 0 0 0 -1.895644,-0.785606 z"
         id="path8-2"
         style="clip-rule:evenodd;fill:url(#linearGradient870);fill-opacity:1;fill-rule:evenodd;stroke-width:0.297916;stroke-linejoin:round;stroke-miterlimit:1.41421" />
      <path
         d="m 42.95289,29.780364 c -1.73099,0 -3.40904,-0.494302 -4.85545,-1.43183 -0.2098,-0.134972 -0.26811,-0.414045 -0.13314,-0.6238 0.1349,-0.207926 0.41399,-0.268125 0.62381,-0.133144 1.29868,0.842671 2.80692,1.287727 4.36478,1.287727 4.43037,0 8.03634,-3.60419 8.03634,-8.036448 0,-4.430456 -3.60414,-8.036463 -8.03634,-8.036463 -4.43046,0 -8.03648,3.606007 -8.03648,8.036463 0,1.962596 0.715,3.852235 2.01362,5.320545 0.16423,0.186044 0.14777,0.470584 -0.0386,0.636565 -0.18789,0.164159 -0.47235,0.14774 -0.63662,-0.04013 -1.44454,-1.632462 -2.23978,-3.735515 -2.23978,-5.91699 0,-4.928391 4.00909,-8.937499 8.9375,-8.937499 4.9284,0 8.9375,4.009107 8.9375,8.937499 0,4.928388 -4.0091,8.937499 -8.9375,8.937499 z"
         id="path6-9"
         style="clip-rule:evenodd;fill:url(#linearGradient862);fill-opacity:1;fill-rule:evenodd;stroke-width:0.0182398;stroke-linejoin:round;stroke-miterlimit:1.41421" />
    </g>
  </g>
  <g
     id="bookmarks">
    <rect
       y="0"
       x="0"
       height="32"
       width="32"
       id="rect820"
       style="clip-rule:evenodd;fill:#2020ff;fill-opacity:0;fill-rule:evenodd;stroke-linejoin:round;stroke-miterlimit:1.41421" />
    <path
       d="m 15.931417,28.771434 c -2.517755,0 -4.958571,-0.71898 -7.062448,-2.082653 -0.305102,-0.196327 -0.39,-0.602245 -0.193674,-0.907347 0.196327,-0.302449 0.602245,-0.39 0.907347,-0.193673 1.88898,1.225714 4.083061,1.873061 6.348775,1.873061 6.444285,0 11.689387,-5.242449 11.689387,-11.689387 0,-6.444286 -5.242449,-11.689387 -11.689387,-11.689387 -6.444285,0 -11.689387,5.245101 -11.689387,11.689387 0,2.854694 1.04,5.603265 2.92898,7.738979 0.238775,0.270612 0.214898,0.68449 -0.05571,0.925918 -0.273266,0.238776 -0.687143,0.214898 -0.925919,-0.05837 -2.101224,-2.37449 -3.257959,-5.433469 -3.257959,-8.60653 0,-7.168571 5.831428,-12.999999 12.999999,-12.999999 7.168571,0 12.999999,5.831428 12.999999,12.999999 0,7.168571 -5.831428,12.999999 -12.999999,12.999999 z"
       id="path6"
       style="clip-rule:evenodd;fill:url(#linearGradient846);fill-opacity:1;fill-rule:evenodd;stroke-width:0.0265306;stroke-linejoin:round;stroke-miterlimit:1.41421" />
    <path
       d="M 15.90286,23.427999 9.5039005,17.029039 C 8.5989971,16.124137 8.125,14.939144 8.125,13.667971 8.125,12.396796 8.6205424,11.211803 9.5039005,10.3069 10.387258,9.401997 11.593796,8.928 12.86497,8.928 c 1.120357,0 2.197623,0.3878157 3.03789,1.098811 C 16.764673,9.3158157 17.820393,8.928 18.94075,8.928 c 1.271174,0 2.456166,0.4955423 3.36107,1.3789 0.904903,0.883359 1.3789,2.089897 1.3789,3.361071 0,1.271173 -0.495542,2.456166 -1.3789,3.361068 z M 12.86497,9.8113581 c -1.034175,0 -2.003715,0.4093609 -2.736255,1.1419009 -0.7325411,0.732541 -1.1419022,1.702082 -1.1419022,2.736257 0,1.034175 0.4093611,2.003715 1.1419022,2.736255 l 5.774145,5.795691 5.795691,-5.795691 c 0.732541,-0.73254 1.141902,-1.70208 1.141902,-2.736255 0,-1.034175 -0.409361,-2.003716 -1.141902,-2.736257 -0.732541,-0.73254 -1.70208,-1.1419009 -2.736256,-1.1419009 -1.034175,0 -2.003714,0.4093609 -2.736255,1.1419009 l -0.32318,0.301635 -0.301634,-0.301635 C 14.868685,10.199174 13.899145,9.8113581 12.86497,9.8113581 Z m 3.03789,11.3328369 -5.257058,-5.257056 c -1.2065375,-1.206538 -1.2065375,-3.188708 0,-4.416792 0.581724,-0.581723 1.378901,-0.904903 2.219168,-0.904903 0,0 0,0 0,0 0.840267,0 1.615899,0.32318 2.219168,0.904903 l 0.818722,0.840268 0.840267,-0.840268 c 0.581724,-0.581723 1.378901,-0.904903 2.219168,-0.904903 0.840268,0 1.615899,0.32318 2.219168,0.904903 1.228083,1.228084 1.228083,3.210254 0,4.416792 z m -3.03789,-9.716938 c -0.603269,0 -1.163447,0.236998 -1.594354,0.667904 -0.883358,0.883358 -0.883358,2.326896 0,3.188708 l 4.632244,4.653789 4.653789,-4.653789 c 0.883358,-0.883357 0.883358,-2.326895 0,-3.188708 -0.430906,-0.430906 -0.991085,-0.667904 -1.594354,-0.667904 -0.603269,0 -1.163447,0.236998 -1.594353,0.667904 L 15.90286,13.538699 14.459324,12.095161 C 14.028417,11.664255 13.468239,11.427257 12.86497,11.427257 Z"
       id="path2"
       style="fill:url(#linearGradient857);stroke-width:0.215453;fill-opacity:1.0" />
  </g>
</svg>
