<?xml version="1.0" encoding="UTF-8" standalone="no"?>
<svg
   xmlns:dc="http://purl.org/dc/elements/1.1/"
   xmlns:cc="http://creativecommons.org/ns#"
   xmlns:rdf="http://www.w3.org/1999/02/22-rdf-syntax-ns#"
   xmlns:svg="http://www.w3.org/2000/svg"
   xmlns="http://www.w3.org/2000/svg"
   xmlns:sodipodi="http://sodipodi.sourceforge.net/DTD/sodipodi-0.dtd"
   xmlns:inkscape="http://www.inkscape.org/namespaces/inkscape"
   width="32"
   height="32"
   version="1.1"
   id="svg17"
   sodipodi:docname="configure.svg"
   inkscape:version="1.0.1 (3bc2e813f5, 2020-09-07)">
  <metadata
     id="metadata23">
    <rdf:RDF>
      <cc:Work
         rdf:about="">
        <dc:format>image/svg+xml</dc:format>
        <dc:type
           rdf:resource="http://purl.org/dc/dcmitype/StillImage" />
      </cc:Work>
    </rdf:RDF>
  </metadata>
  <defs
     id="defs21" />
  <sodipodi:namedview
     pagecolor="#ffffff"
     bordercolor="#666666"
     borderopacity="1"
     objecttolerance="10"
     gridtolerance="10"
     guidetolerance="10"
     inkscape:pageopacity="0"
     inkscape:pageshadow="2"
     inkscape:window-width="1920"
     inkscape:window-height="1007"
     id="namedview19"
     showgrid="false"
     inkscape:zoom="6.9384853"
     inkscape:cx="41.808518"
     inkscape:cy="-4.8564656"
     inkscape:window-x="0"
     inkscape:window-y="0"
     inkscape:window-maximized="1"
     inkscape:current-layer="svg17"
     inkscape:document-rotation="0"
     inkscape:lockguides="false">
    <inkscape:grid
       type="xygrid"
       id="grid838"
       originx="0"
       originy="0" />
  </sodipodi:namedview>
  <g
     id="configure">
    <rect
       style="opacity:0.00100002"
       width="32"
       height="32"
       x="0"
       y="0"
       id="rect12" />
    <path
       style="color:#000000;text-indent:0;text-transform:none;direction:ltr;baseline-shift:baseline;fill:#00a4cc;fill-opacity:1;stroke-width:0.387097;enable-background:accumulate"
       d="m 1.5305909,6.6686769 c 0,-0.2137857 0.1733032,-0.3870967 0.3870967,-0.3870967 H 13.530589 V 4.3460967 C 13.530628,4.1434206 13.715002,3.9590193 13.917686,3.959 h 3.096773 c 0.254826,0.00956 0.388181,0.242667 0.387097,0.3870967 v 1.9354835 h 13.1613 c 0.213786,0 0.387096,0.173311 0.387096,0.3870967 0,0.2137858 -0.17331,0.3870967 -0.387096,0.3870967 h -13.1613 v 1.9354836 c 0,0.2026722 -0.184413,0.3870738 -0.387097,0.3870968 H 13.917686 C 13.715002,9.378331 13.530628,9.1939294 13.530589,8.9912572 V 7.0557736 H 1.9176876 c -0.2137935,0 -0.3870967,-0.1733109 -0.3870967,-0.3870967 z m 0,9.2903251 c 0,-0.213794 0.1733032,-0.387097 0.3870967,-0.387097 H 21.272523 v -1.935487 c 3.9e-5,-0.202676 0.184413,-0.387078 0.387097,-0.387097 h 3.096774 c 0.254825,0.0096 0.38818,0.242667 0.387096,0.387097 v 1.935487 h 5.419366 c 0.213786,0 0.387096,0.173303 0.387096,0.387097 0,0.213793 -0.17331,0.387097 -0.387096,0.387097 H 25.14349 v 1.935483 c 0,0.202684 -0.184413,0.387058 -0.387096,0.387097 H 21.65962 c -0.202684,-3.9e-5 -0.387058,-0.184413 -0.387097,-0.387097 V 16.346099 H 1.9176876 c -0.2137935,0 -0.3870967,-0.173304 -0.3870967,-0.387097 z m 0,9.290321 c 0,-0.213794 0.1733032,-0.387097 0.3870967,-0.387097 h 3.8709671 v -1.935483 c 3.87e-5,-0.202684 0.1844129,-0.387097 0.3870967,-0.387097 h 3.0967737 c 0.2548258,0.0097 0.3881806,0.242671 0.3870967,0.387097 v 1.935483 H 30.562856 c 0.213786,0 0.387096,0.173303 0.387096,0.387097 0,0.213793 -0.17331,0.387097 -0.387096,0.387097 H 9.6596218 v 1.935483 c 0,0.202684 -0.1844128,0.387058 -0.3870967,0.387097 H 6.1757514 C 5.9730676,27.958961 5.7886934,27.774587 5.7886547,27.571903 V 25.63642 H 1.9176876 c -0.2137935,0 -0.3870967,-0.173304 -0.3870967,-0.387097 z m 5.0322572,-1.935484 v 3.870967 H 8.8854284 V 23.313839 Z M 14.304782,4.7331934 v 3.8709671 h 2.322581 V 4.7331934 Z m 7.741935,9.2903206 v 3.870971 h 2.32258 v -3.870971 z"
       fill-opacity="1"
       stroke="none"
       marker="none"
       visibility="visible"
       display="inline"
       overflow="visible"
       id="path2" />
  </g>
  <g
     id="22-22-configure">
    <rect
       style="opacity:0.00100002"
       width="22"
       height="22"
       x="0"
       y="-22"
       id="rect2" />
    <path
       style="color:#000000;text-indent:0;text-transform:none;direction:ltr;baseline-shift:baseline;fill:#d3dae3;fill-opacity:1;stroke-width:0.258065;enable-background:accumulate"
       d="m 1.188,-17.203549 c 0,-0.142524 0.1155359,-0.258064 0.2580656,-0.258064 h 7.7419708 v -1.290323 c 2.58e-5,-0.135117 0.1229426,-0.258051 0.2580658,-0.258064 h 2.0645258 c 0.169884,0.0064 0.258788,0.161778 0.258066,0.258064 v 1.290323 h 8.774241 c 0.142524,0 0.258065,0.11554 0.258065,0.258064 0,0.142524 -0.115541,0.258065 -0.258065,0.258065 h -8.774241 v 1.290322 c 0,0.135115 -0.122944,0.258049 -0.258066,0.258064 H 9.4461022 c -0.1351232,-1.5e-5 -0.25804,-0.122949 -0.2580658,-0.258064 v -1.290322 H 1.4460656 c -0.1425297,0 -0.2580656,-0.115541 -0.2580656,-0.258065 z m 0,6.19355 c 0,-0.142529 0.1155359,-0.258065 0.2580656,-0.258065 H 14.349351 v -1.290325 c 2.6e-5,-0.135117 0.122942,-0.258051 0.258065,-0.258064 h 2.064526 c 0.169884,0.0064 0.258787,0.161778 0.258066,0.258064 v 1.290325 h 3.612927 c 0.142524,0 0.258065,0.115536 0.258065,0.258065 0,0.142529 -0.115541,0.258064 -0.258065,0.258064 h -3.612927 v 1.2903227 c 0,0.1351226 -0.122943,0.2580387 -0.258066,0.2580645 h -2.064526 c -0.135123,-2.58e-5 -0.258039,-0.1229419 -0.258065,-0.2580645 V -10.751935 H 1.4460656 C 1.3035359,-10.751935 1.188,-10.86747 1.188,-11.009999 Z m 0,6.1935472 c 0,-0.142529 0.1155359,-0.2580645 0.2580656,-0.2580645 h 2.5806569 v -1.2903223 c 2.59e-5,-0.1351226 0.1229427,-0.2580645 0.2580658,-0.2580645 h 2.0645256 c 0.1698845,0.00645 0.2587882,0.1617806 0.2580656,0.2580645 v 1.2903223 H 20.542935 c 0.142524,0 0.258065,0.1155355 0.258065,0.2580645 0,0.142529 -0.115541,0.2580644 -0.258065,0.2580644 H 6.6073795 v 1.2903224 c 0,0.1351225 -0.1229425,0.2580387 -0.2580656,0.2580645 H 4.2847883 C 4.1496652,-3.0100263 4.0267484,-3.1329425 4.0267225,-3.268065 V -4.5583874 H 1.4460656 C 1.3035359,-4.5583874 1.188,-4.6739228 1.188,-4.8164518 Z m 3.354854,-1.2903224 v 2.5806447 H 6.0912481 V -6.1067742 Z M 9.7041679,-18.493871 v 2.580644 h 1.5483931 v -2.580644 z m 5.1613141,6.193547 v 2.580647 h 1.548394 v -2.580647 z"
       fill-opacity="1"
       stroke="none"
       marker="none"
       visibility="visible"
       display="inline"
       overflow="visible"
       id="path2-6" />
  </g>
  <g
     id="16-16-configure">
    <rect
       style="opacity:0.00100002"
       width="16"
       height="16"
       x="0"
       y="-38"
       id="rect7" />
    <path
       style="color:#000000;text-indent:0;text-transform:none;direction:ltr;baseline-shift:baseline;fill:#cccc00;fill-opacity:1;stroke-width:0.193548;enable-background:accumulate"
       d="m 0.65400002,-34.677162 c 0,-0.106893 0.0866516,-0.193548 0.19354836,-0.193548 H 6.6539992 v -0.967742 c 1.93e-5,-0.101338 0.092206,-0.193538 0.1935483,-0.193548 h 1.5483869 c 0.1274129,0.0048 0.1940903,0.121333 0.1935484,0.193548 v 0.967742 h 6.5806502 c 0.106893,0 0.193548,0.08666 0.193548,0.193548 0,0.106893 -0.08666,0.193549 -0.193548,0.193549 H 8.5894828 v 0.967742 c 0,0.101336 -0.092207,0.193536 -0.1935484,0.193548 H 6.8475475 c -0.1013419,-1.2e-5 -0.193529,-0.09221 -0.1935483,-0.193548 v -0.967742 H 0.84754838 c -0.10689676,0 -0.19354836,-0.08666 -0.19354836,-0.193549 z m 0,4.645163 c 0,-0.106897 0.0866516,-0.193548 0.19354836,-0.193548 H 10.524966 v -0.967744 c 2e-5,-0.101338 0.09221,-0.193539 0.193549,-0.193549 h 1.548387 c 0.127413,0.0048 0.19409,0.121334 0.193548,0.193549 v 0.967744 h 2.709683 c 0.106893,0 0.193548,0.08665 0.193548,0.193548 0,0.106897 -0.08666,0.193548 -0.193548,0.193548 H 12.46045 v 0.967742 c 0,0.101342 -0.09221,0.193529 -0.193548,0.193548 h -1.548387 c -0.101342,-1.9e-5 -0.193529,-0.09221 -0.193549,-0.193548 v -0.967742 H 0.84754838 c -0.10689676,0 -0.19354836,-0.08665 -0.19354836,-0.193548 z m 0,4.645161 c 0,-0.106897 0.0866516,-0.193549 0.19354836,-0.193549 H 2.783032 v -0.967742 c 1.93e-5,-0.101342 0.092206,-0.193548 0.1935483,-0.193548 h 1.5483869 c 0.1274129,0.0048 0.1940903,0.121336 0.1935484,0.193548 v 0.967742 H 15.170133 c 0.106893,0 0.193548,0.08665 0.193548,0.193549 0,0.106896 -0.08666,0.193548 -0.193548,0.193548 H 4.7185156 v 0.967742 c 0,0.101342 -0.092206,0.193529 -0.1935484,0.193548 H 2.9765803 c -0.1013419,-1.9e-5 -0.193529,-0.09221 -0.1935483,-0.193548 V -25.19329 H 0.84754838 c -0.10689676,0 -0.19354836,-0.08665 -0.19354836,-0.193548 z M 3.1701287,-26.35458 v 1.935483 h 1.1612902 v -1.935483 z m 3.8709672,-9.290323 v 1.935483 h 1.1612902 v -1.935483 z m 3.8709671,4.64516 v 1.935486 h 1.16129 v -1.935486 z"
       fill-opacity="1"
       stroke="none"
       marker="none"
       visibility="visible"
       display="inline"
       overflow="visible"
       id="path2-5" />
  </g>
</svg>
