<?xml version="1.0" encoding="UTF-8" standalone="no"?>
<svg
   xmlns:dc="http://purl.org/dc/elements/1.1/"
   xmlns:cc="http://creativecommons.org/ns#"
   xmlns:rdf="http://www.w3.org/1999/02/22-rdf-syntax-ns#"
   xmlns:svg="http://www.w3.org/2000/svg"
   xmlns="http://www.w3.org/2000/svg"
   xmlns:sodipodi="http://sodipodi.sourceforge.net/DTD/sodipodi-0.dtd"
   xmlns:inkscape="http://www.inkscape.org/namespaces/inkscape"
   id="svg7384"
   width="22"
   height="22"
   enable-background="new"
   inkscape:version="1.0.1 (3bc2e813f5, 2020-09-07)"
   sodipodi:docname="disk.svg"
   version="1.1">
  <metadata
     id="metadata32">
    <rdf:RDF>
      <cc:Work
         rdf:about="">
        <dc:format>image/svg+xml</dc:format>
        <dc:type
           rdf:resource="http://purl.org/dc/dcmitype/StillImage" />
        <dc:title />
      </cc:Work>
    </rdf:RDF>
  </metadata>
  <sodipodi:namedview
     id="namedview10"
     bordercolor="#000000"
     borderopacity="1"
     gridtolerance="10"
     guidetolerance="10"
     inkscape:bbox-nodes="true"
     inkscape:current-layer="svg7384"
     inkscape:cx="69.14387"
     inkscape:cy="-1.6156687"
     inkscape:pageopacity="0"
     inkscape:pageshadow="2"
     inkscape:snap-bbox="true"
     inkscape:snap-bbox-edge-midpoints="true"
     inkscape:window-height="1009"
     inkscape:window-maximized="1"
     inkscape:window-width="1920"
     inkscape:window-x="0"
     inkscape:window-y="0"
     inkscape:zoom="4"
     objecttolerance="10"
     pagecolor="#ffffff"
     showgrid="false"
     inkscape:document-rotation="0"
     inkscape:lockguides="true">
    <inkscape:grid
       id="grid39"
       type="xygrid"
       originx="0"
       originy="0" />
  </sodipodi:namedview>
  <defs
     id="defs7386">
    <style
       id="current-color-scheme"
       type="text/css">.ColorScheme-Text { color:#dedede; } .ColorScheme-Highlight { color:#5294e2; } .ColorScheme-ButtonBackground { color:#dedede; }</style>
  </defs>
  <g
     id="g23"
     fill="#dedede" />
  <g
     id="disk-quota">
    <path
       id="path19"
       d="M 0,0 H 22 V 22 H 0 Z"
       opacity="0"
       inkscape:connector-curvature="0" />
    <path
       d="M 16.231769,2.2 H 5.6711546 c -0.7446587,0 -1.353925,0.675 -1.353925,1.5 v 15 c 0,0.825 0.6092663,1.5 1.353925,1.5 H 16.231769 c 0.744659,0 1.353926,-0.675 1.353926,-1.5 v -15 c 0,-0.825 -0.609267,-1.5 -1.353926,-1.5 z m 0.676963,16.5 c 0,0.4125 -0.304633,0.75 -0.676963,0.75 H 5.6711546 c -0.3723294,0 -0.6769625,-0.3375 -0.6769625,-0.75 v -15 c 0,-0.4125 0.3046331,-0.75 0.6769625,-0.75 H 16.231769 c 0.37233,0 0.676963,0.3375 0.676963,0.75 z"
       id="path2"
       style="fill:#d3dae3;fill-opacity:1;stroke-width:0.356273" />
    <path
       d="m 10.85,7.375 c -2.4932433,0 -4.5,2.0067567 -4.5,4.5 0,2.493237 2.0067567,4.5 4.5,4.5 2.493237,0 4.5,-2.006763 4.5,-4.5 0,-2.4932433 -2.006763,-4.5 -4.5,-4.5 z m 0,7.992 C 9.9362891,15.367 9.2704307,15.128164 8.691,14.688983 7.9014359,14.090531 7.358,13.120073 7.358,11.875 7.358,10.728436 7.8289452,9.9273479 8.5050469,9.3225983 9.1019295,8.7887075 9.8377799,8.483 10.85,8.483 c 0.920217,0 1.508443,0.2655818 2.089324,0.7107607 C 13.721162,9.79295 14.242,10.636432 14.242,11.875 c 0,0.958044 -0.370035,1.761138 -0.864,2.354661 C 12.774582,14.954697 12.037051,15.367 10.85,15.367 Z"
       id="path4"
       style="fill:#00cdff;fill-opacity:1;stroke-width:0.304062"
       sodipodi:nodetypes="ssssssssssssss" />
    <path
       d="m 10.8,10.65 c -0.656618,0 -1.175,0.518382 -1.175,1.175 0,0.656618 0.518382,1.175 1.175,1.175 0.656618,0 1.175,-0.518382 1.175,-1.175 0,-0.656618 -0.518382,-1.175 -1.175,-1.175 z m 0.016,1.175 v 0 z"
       id="path6"
       style="fill:#00cdff;fill-opacity:1;stroke-width:0.345588"
       sodipodi:nodetypes="ssssscccc" />
    <path
       d="m 10.330989,14.220009 c -1.0256418,0 -1.8589749,-0.833336 -1.8589749,-1.858974 0,-0.128206 -0.08547,-0.213675 -0.2136752,-0.213675 -0.1282052,0 -0.2136754,0.08547 -0.2136754,0.213675 0,1.260687 1.0256413,2.286325 2.2863255,2.286325 0.128206,0 0.213675,-0.08546 0.213675,-0.213675 0,-0.128206 -0.08547,-0.213676 -0.213675,-0.213676 z"
       id="path8"
       style="fill:#00cdff;fill-opacity:1;stroke-width:0.213675" />
    <path
       d="m 7.925,4.75 h 6.15 C 14.3,4.75 14.45,4.6 14.45,4.375 14.45,4.15 14.3,4 14.075,4 H 7.925 C 7.7,4 7.55,4.15 7.55,4.375 7.55,4.6 7.7,4.75 7.925,4.75 Z"
       id="path10"
       style="fill:#00cdff;fill-opacity:1;stroke-width:0.375" />
    <circle
       cx="5.8249998"
       cy="7.75"
       r="0.375"
       id="circle12"
       style="fill:#d3dae3;fill-opacity:1;stroke-width:0.375" />
    <circle
       cx="16.174999"
       cy="7.75"
       r="0.375"
       id="circle14"
       style="fill:#d3dae3;fill-opacity:1;stroke-width:0.375" />
    <circle
       cx="16.174999"
       cy="18.1"
       r="0.375"
       id="circle16"
       style="fill:#d3dae3;fill-opacity:1;stroke-width:0.375" />
    <circle
       cx="5.8249998"
       cy="18.1"
       r="0.375"
       id="circle18"
       style="fill:#d3dae3;fill-opacity:1;stroke-width:0.375" />
  </g>
  <g
     id="disk-quota-high">
    <path
       id="path19-6-0"
       d="m 59.094317,0.0324236 h 22 V 22.032424 h -22 z"
       opacity="0"
       inkscape:connector-curvature="0" />
    <path
       d="M 75.326086,2.2324236 H 64.765472 c -0.744659,0 -1.353925,0.675 -1.353925,1.5 V 18.732424 c 0,0.825 0.609266,1.5 1.353925,1.5 h 10.560614 c 0.744659,0 1.353926,-0.675 1.353926,-1.5 V 3.7324236 c 0,-0.825 -0.609267,-1.5 -1.353926,-1.5 z m 0.676963,16.5000004 c 0,0.4125 -0.304633,0.75 -0.676963,0.75 H 64.765472 c -0.37233,0 -0.676963,-0.3375 -0.676963,-0.75 V 3.7324236 c 0,-0.4125 0.304633,-0.75 0.676963,-0.75 h 10.560614 c 0.37233,0 0.676963,0.3375 0.676963,0.75 z"
       id="path2-7-9"
       style="fill:#d3dae3;fill-opacity:1;stroke-width:0.356273" />
    <path
       d="m 69.944317,7.4074236 c -2.493243,0 -4.5,2.0067567 -4.5,4.5000004 0,2.493237 2.006757,4.5 4.5,4.5 2.493237,0 4.5,-2.006763 4.5,-4.5 0,-2.4932437 -2.006763,-4.5000004 -4.5,-4.5000004 z m 0,8.0915764 c -1.137981,0 -1.974145,-0.398139 -2.605317,-1.090884 -0.56618,-0.621414 -0.987,-1.479888 -0.987,-2.500692 0,-1.223536 0.560968,-2.2138118 1.353,-2.8422031 C 68.310416,8.584889 69.009068,8.316 69.944317,8.316 c 1.158565,0 2.008542,0.4126279 2.639683,1.1286795 0.544881,0.6181865 0.952,1.4625245 0.952,2.4627445 0,1.155451 -0.522515,2.114864 -1.254,2.750557 -0.61593,0.53527 -1.35086,0.841019 -2.337683,0.841019 z"
       id="path4-5-3"
       style="fill:#ff6600;fill-opacity:1;stroke-width:0.304062"
       sodipodi:nodetypes="ssssssssssssss" />
    <path
       d="m 69.894317,10.682424 c -0.656618,0 -1.175,0.518382 -1.175,1.175 0,0.656618 0.518382,1.175 1.175,1.175 0.656618,0 1.175,-0.518382 1.175,-1.175 0,-0.656618 -0.518382,-1.175 -1.175,-1.175 z m 0,1.658824 c -0.27647,0 -0.483824,-0.207354 -0.483824,-0.483824 0,-0.27647 0.207354,-0.483824 0.483824,-0.483824 0.27647,0 0.483824,0.207354 0.483824,0.483824 0,0.27647 -0.207354,0.483824 -0.483824,0.483824 z"
       id="path6-3-6"
       style="fill:#ff6600;fill-opacity:1;stroke-width:0.345588" />
    <path
       d="m 69.380642,14.105073 c -1.025641,0 -1.858975,-0.833334 -1.858975,-1.858974 0,-0.128206 -0.08547,-0.213675 -0.213675,-0.213675 -0.128205,0 -0.213675,0.08547 -0.213675,0.213675 0,1.260685 1.025641,2.286325 2.286325,2.286325 0.128206,0 0.213675,-0.08547 0.213675,-0.213675 0,-0.128206 -0.08547,-0.213676 -0.213675,-0.213676 z"
       id="path8-5-0"
       style="fill:#ff6600;fill-opacity:1;stroke-width:0.213675" />
    <path
       d="m 67.019317,4.7824236 h 6.15 c 0.225,0 0.375,-0.15 0.375,-0.375 0,-0.225 -0.15,-0.375 -0.375,-0.375 h -6.15 c -0.225,0 -0.375,0.15 -0.375,0.375 0,0.225 0.15,0.375 0.375,0.375 z"
       id="path10-6-6"
       style="fill:#00cdff;fill-opacity:1;stroke-width:0.375" />
    <circle
       cx="64.919319"
       cy="7.7824235"
       r="0.375"
       id="circle12-2-2"
       style="fill:#d3dae3;fill-opacity:1;stroke-width:0.375" />
    <circle
       cx="75.269318"
       cy="7.7824235"
       r="0.375"
       id="circle14-9-6"
       style="fill:#d3dae3;fill-opacity:1;stroke-width:0.375" />
    <circle
       cx="75.269318"
       cy="18.132423"
       r="0.375"
       id="circle16-1-1"
       style="fill:#d3dae3;fill-opacity:1;stroke-width:0.375" />
    <circle
       cx="64.919319"
       cy="18.132423"
       r="0.375"
       id="circle18-2-8"
       style="fill:#d3dae3;fill-opacity:1;stroke-width:0.375" />
  </g>
  <g
     id="disk-quota-critical">
    <path
       id="path19-6-0-9"
       d="M 86.056461,0.07996173 H 108.05646 V 22.079962 H 86.056461 Z"
       opacity="0"
       inkscape:connector-curvature="0" />
    <path
       d="M 102.28823,2.2799617 H 91.727616 c -0.744659,0 -1.353925,0.675 -1.353925,1.5 V 18.779962 c 0,0.825 0.609266,1.5 1.353925,1.5 h 10.560614 c 0.74466,0 1.35393,-0.675 1.35393,-1.5 V 3.7799617 c 0,-0.825 -0.60927,-1.5 -1.35393,-1.5 z m 0.67696,16.5000003 c 0,0.4125 -0.30463,0.75 -0.67696,0.75 H 91.727616 c -0.37233,0 -0.676963,-0.3375 -0.676963,-0.75 V 3.7799617 c 0,-0.4125 0.304633,-0.75 0.676963,-0.75 h 10.560614 c 0.37233,0 0.67696,0.3375 0.67696,0.75 z"
       id="path2-7-9-2"
       style="fill:#d3dae3;fill-opacity:1;stroke-width:0.356273" />
    <path
       d="m 96.906461,7.4549617 c -2.493243,0 -4.5,2.0067567 -4.5,4.5000003 0,2.493237 2.006757,4.5 4.5,4.5 2.493237,0 4.499999,-2.006763 4.499999,-4.5 0,-2.4932436 -2.006762,-4.5000003 -4.499999,-4.5000003 z m 0,8.0920383 c -1.051898,0 -1.831099,-0.340292 -2.456461,-0.939001 -0.658052,-0.630005 -1.135,-1.546151 -1.135,-2.653037 0,-1.152298 0.508081,-2.0978609 1.217,-2.7290842 C 95.151214,8.6745284 95.899974,8.363 96.906461,8.363 c 1.065375,0 1.853755,0.3490486 2.480539,0.9621013 0.64328,0.6291847 1.111,1.5364507 1.111,2.6298607 0,1.047233 -0.44645,1.933542 -1.056,2.563755 C 98.812716,15.169332 98.003048,15.547 96.906461,15.547 Z"
       id="path4-5-3-0"
       style="fill:#ff0066;fill-opacity:1;stroke-width:0.304062"
       sodipodi:nodetypes="ssssssssssssss" />
    <path
       d="m 96.856461,10.729962 c -0.656618,0 -1.175,0.518382 -1.175,1.175 0,0.656618 0.518382,1.175 1.175,1.175 0.656618,0 1.175,-0.518382 1.175,-1.175 0,-0.656618 -0.518382,-1.175 -1.175,-1.175 z m 0,1.658824 c -0.27647,0 -0.483824,-0.207354 -0.483824,-0.483824 0,-0.27647 0.207354,-0.483824 0.483824,-0.483824 0.27647,0 0.483824,0.207354 0.483824,0.483824 0,0.27647 -0.207354,0.483824 -0.483824,0.483824 z"
       id="path6-3-6-2"
       style="fill:#ff0066;fill-opacity:1;stroke-width:0.345588" />
    <path
       d="m 96.342786,14.152611 c -1.025641,0 -1.858974,-0.833334 -1.858974,-1.858974 0,-0.128206 -0.08547,-0.213675 -0.213676,-0.213675 -0.128205,0 -0.213675,0.08547 -0.213675,0.213675 0,1.260685 1.025641,2.286325 2.286325,2.286325 0.128206,0 0.213675,-0.08547 0.213675,-0.213675 0,-0.128206 -0.08547,-0.213676 -0.213675,-0.213676 z"
       id="path8-5-0-3"
       style="fill:#ff0066;fill-opacity:1;stroke-width:0.213675" />
    <path
       d="m 93.981461,4.8299617 h 6.149999 c 0.225,0 0.375,-0.15 0.375,-0.375 0,-0.225 -0.15,-0.375 -0.375,-0.375 h -6.149999 c -0.225,0 -0.375,0.15 -0.375,0.375 0,0.225 0.15,0.375 0.375,0.375 z"
       id="path10-6-6-7"
       style="fill:#00cdff;fill-opacity:1;stroke-width:0.375" />
    <circle
       cx="91.881462"
       cy="7.8299618"
       r="0.375"
       id="circle12-2-2-5"
       style="fill:#d3dae3;fill-opacity:1;stroke-width:0.375" />
    <circle
       cx="102.23146"
       cy="7.8299618"
       r="0.375"
       id="circle14-9-6-9"
       style="fill:#d3dae3;fill-opacity:1;stroke-width:0.375" />
    <circle
       cx="102.23146"
       cy="18.179962"
       r="0.375"
       id="circle16-1-1-2"
       style="fill:#d3dae3;fill-opacity:1;stroke-width:0.375" />
    <circle
       cx="91.881462"
       cy="18.179962"
       r="0.375"
       id="circle18-2-8-2"
       style="fill:#d3dae3;fill-opacity:1;stroke-width:0.375" />
  </g>
  <g
     id="disk-quota-low">
    <circle
       cx="37.888"
       cy="18.131001"
       r="0.375"
       id="circle18-2"
       style="fill:#d3dae3;fill-opacity:1;stroke-width:0.375" />
    <path
       id="path19-6"
       d="m 32.063,0.031 h 22 v 22 h -22 z"
       opacity="0"
       inkscape:connector-curvature="0" />
    <path
       d="M 48.294769,2.231 H 37.734155 c -0.744659,0 -1.353925,0.675 -1.353925,1.5 v 15 c 0,0.825 0.609266,1.5 1.353925,1.5 h 10.560614 c 0.744659,0 1.353926,-0.675 1.353926,-1.5 v -15 c 0,-0.825 -0.609267,-1.5 -1.353926,-1.5 z m 0.676963,16.5 c 0,0.4125 -0.304633,0.75 -0.676963,0.75 H 37.734155 c -0.37233,0 -0.676963,-0.3375 -0.676963,-0.75 v -15 c 0,-0.4125 0.304633,-0.75 0.676963,-0.75 h 10.560614 c 0.37233,0 0.676963,0.3375 0.676963,0.75 z"
       id="path2-7"
       style="fill:#d3dae3;fill-opacity:1;stroke-width:0.356273" />
    <path
       d="m 42.913,7.406 c -2.493243,0 -4.5,2.0067567 -4.5,4.5 0,2.493237 2.006757,4.5 4.5,4.5 2.493237,0 4.5,-2.006763 4.5,-4.5 0,-2.4932433 -2.006763,-4.5 -4.5,-4.5 z m 0,8.092 c -1.087628,0 -1.984956,-0.444824 -2.613746,-1.107102 C 39.679987,13.73865 39.321,12.977156 39.321,11.906 c 0,-1.246112 0.665974,-2.2647963 1.475,-2.9034134 C 41.388544,8.5348526 41.96502,8.271 42.877693,8.271 c 1.135716,0 1.997949,0.4243025 2.655307,1.1407978 0.592158,0.6454292 1.037,1.5279642 1.037,2.5510332 0,1.059124 -0.336698,1.757482 -0.975477,2.399687 C 44.949638,15.010861 43.997527,15.498 42.913,15.498 Z"
       id="path4-5"
       style="fill:#ffcc00;fill-opacity:1;stroke-width:0.304062"
       sodipodi:nodetypes="ssssssssssssss" />
    <path
       d="m 42.863,10.681 c -0.656618,0 -1.175,0.518382 -1.175,1.175 0,0.656618 0.518382,1.175 1.175,1.175 0.656618,0 1.175,-0.518382 1.175,-1.175 0,-0.656618 -0.518382,-1.175 -1.175,-1.175 z m 0,1.658824 c -0.27647,0 -0.483824,-0.207354 -0.483824,-0.483824 0,-0.27647 0.207354,-0.483824 0.483824,-0.483824 0.27647,0 0.483824,0.207354 0.483824,0.483824 0,0.27647 -0.207354,0.483824 -0.483824,0.483824 z"
       id="path6-3"
       style="fill:#ffcc00;fill-opacity:1;stroke-width:0.345588" />
    <path
       d="m 42.349325,14.103649 c -1.025641,0 -1.858974,-0.833334 -1.858974,-1.858974 -10e-7,-0.128206 -0.08547,-0.213675 -0.213676,-0.213675 -0.128205,0 -0.213675,0.08547 -0.213675,0.213675 0,1.260685 1.025641,2.286325 2.286325,2.286325 0.128206,0 0.213675,-0.08547 0.213675,-0.213675 0,-0.128206 -0.08547,-0.213676 -0.213675,-0.213676 z"
       id="path8-5"
       style="fill:#ffcc00;fill-opacity:1;stroke-width:0.213675" />
    <path
       d="m 39.988,4.781 h 6.15 c 0.225,0 0.375,-0.15 0.375,-0.375 0,-0.225 -0.15,-0.375 -0.375,-0.375 h -6.15 c -0.225,0 -0.375,0.15 -0.375,0.375 0,0.225 0.15,0.375 0.375,0.375 z"
       id="path10-6"
       style="fill:#00cdff;fill-opacity:1;stroke-width:0.375" />
    <circle
       cx="37.888"
       cy="7.7810001"
       r="0.375"
       id="circle12-2"
       style="fill:#d3dae3;fill-opacity:1;stroke-width:0.375" />
    <circle
       cx="48.237999"
       cy="7.7810001"
       r="0.375"
       id="circle14-9"
       style="fill:#d3dae3;fill-opacity:1;stroke-width:0.375" />
    <circle
       cx="48.237999"
       cy="18.131001"
       r="0.375"
       id="circle16-1"
       style="fill:#d3dae3;fill-opacity:1;stroke-width:0.375" />
  </g>
</svg>
