<?xml version="1.0" encoding="UTF-8" standalone="no"?>
<svg
   xmlns:dc="http://purl.org/dc/elements/1.1/"
   xmlns:cc="http://creativecommons.org/ns#"
   xmlns:rdf="http://www.w3.org/1999/02/22-rdf-syntax-ns#"
   xmlns:svg="http://www.w3.org/2000/svg"
   xmlns="http://www.w3.org/2000/svg"
   xmlns:sodipodi="http://sodipodi.sourceforge.net/DTD/sodipodi-0.dtd"
   xmlns:inkscape="http://www.inkscape.org/namespaces/inkscape"
   sodipodi:docname="kdeconnect.svg"
   height="100%"
   width="100%"
   inkscape:version="1.0.1 (3bc2e813f5, 2020-09-07)"
   version="1.1"
   id="svg"
   viewBox="0 0 32.000014 31.999972">
  <defs
     id="defs81">
    <style
       type="text/css"
       id="current-color-scheme" />
    <style
       id="current-color-scheme-9"
       type="text/css" />
  </defs>
  <metadata
     id="metadata34">
    <rdf:RDF>
      <cc:Work
         rdf:about="">
        <dc:format>image/svg+xml</dc:format>
        <dc:type
           rdf:resource="http://purl.org/dc/dcmitype/StillImage" />
        <dc:title />
      </cc:Work>
    </rdf:RDF>
  </metadata>
  <sodipodi:namedview
     inkscape:document-rotation="0"
     fit-margin-bottom="0"
     fit-margin-right="0"
     fit-margin-left="0"
     fit-margin-top="0"
     inkscape:snap-bbox-midpoints="true"
     inkscape:snap-bbox="true"
     inkscape:guide-bbox="true"
     showguides="true"
     borderlayer="true"
     inkscape:current-layer="svg"
     inkscape:window-maximized="1"
     inkscape:window-y="0"
     inkscape:window-x="0"
     inkscape:cy="72.988795"
     inkscape:cx="14.13203"
     inkscape:zoom="2.8284272"
     showgrid="false"
     id="namedview32"
     inkscape:window-height="1011"
     inkscape:window-width="1920"
     inkscape:pageshadow="2"
     inkscape:pageopacity="0.11372549"
     guidetolerance="10"
     gridtolerance="10"
     objecttolerance="10"
     borderopacity="1"
     bordercolor="#000000"
     pagecolor="#ffffff"
     inkscape:lockguides="false">
    <inkscape:grid
       spacingy="1.0666667"
       spacingx="1.0666666"
       originy="-31.76665"
       originx="-51.666691"
       snapvisiblegridlinesonly="true"
       enabled="true"
       visible="true"
       empspacing="5"
       id="grid3046"
       type="xygrid" />
  </sodipodi:namedview>
  <g
     transform="translate(7.5625007,73.281246)"
     id="16-16-kdeconnect">
    <path
       style="fill:#d3dae3;fill-opacity:1;stroke:none"
       d="M 2.9999743,1.4999625 V 14.499963 h 2 1 4 0.9999997 2 V 1.4999625 Z m 1,1 H 11.999974 V 11.499963 H 3.9999743 Z m 2,10.0000005 h 4 v 1 h -4 z"
       id="rect3878"
       inkscape:connector-curvature="0" />
    <rect
       style="fill:#566060;fill-opacity:0;stroke:none"
       id="rect3889"
       width="16"
       height="16"
       x="-2.6000002e-05"
       y="-3.7329864e-05"
       ry="2.9278411e-07" />
  </g>
  <g
     id="kdeconnect">
    <g
       id="g3854"
       transform="translate(-48.437527,39.781208)">
      <rect
         width="32.000015"
         height="31.999973"
         rx="0"
         ry="0"
         x="48.437527"
         y="-39.781208"
         id="rect3860"
         style="opacity:0.01;fill:#eff0f1;fill-opacity:0;stroke:none" />
    </g>
    <path
       inkscape:connector-curvature="0"
       style="fill:#d3dae3;fill-opacity:1;stroke-width:1.0833"
       d="m 10.267,3.316688 c -1.20034,0 -2.16667,0.96633 -2.16667,2.16667 v 3.25 H 7.69408 c -0.376378,0 -0.67708,0.300702 -0.67708,0.67708 v 0.8125 c 0,0.376378 0.300702,0.67708 0.67708,0.67708 h 0.40625 v 1.08334 c -0.60016,0 -1.08333,0.48316 -1.08333,1.08333 v 2.16667 c 0,0.60016 0.48317,1.08333 1.08333,1.08333 v 10.83333 c 0,1.200338 0.96633,2.16667 2.16667,2.16667 h 10.83333 c 1.20035,0 2.16667,-0.966332 2.16667,-2.16667 V 5.483358 c 0,-1.20034 -0.96632,-2.16667 -2.16667,-2.16667 z m 10.29167,1.08333 c 0.299152,0 0.54166,0.242518 0.54166,0.54167 0,0.299152 -0.242508,0.54167 -0.54166,0.54167 -0.299162,0 -0.54167,-0.242518 -0.54167,-0.54167 0,-0.299152 0.242508,-0.54167 0.54167,-0.54167 z M 10.267,6.566688 h 10.83333 c 0.60017,0 1.08334,0.48317 1.08334,1.08333 v 16.25 c 0,0.60017 -0.48317,1.08334 -1.08334,1.08334 H 10.267 c -0.60017,0 -1.08333,-0.48317 -1.08333,-1.08334 v -8.66666 -2.16667 -2.84375 -0.8125 -1.76042 c 0,-0.60016 0.48316,-1.08333 1.08333,-1.08333 z m 3.79167,19.5 h 3.25 c 0.60016,0 1.08333,0.48317 1.08333,1.08333 0,0.60017 -0.48317,1.083339 -1.08333,1.083339 h -3.25 c -0.60017,0 -1.08334,-0.483169 -1.08334,-1.083339 0,-0.60016 0.48317,-1.08333 1.08334,-1.08333 z"
       id="path2990-1" />
    <path
       id="path834"
       style="fill:#00cdff;fill-opacity:1;stroke-width:1.0455"
       d="M 13.434499,11.028 A 1.0455001,1.0455001 0 0 0 12.389,12.073501 1.0455001,1.0455001 0 0 0 13.434499,13.119 1.0455001,1.0455001 0 0 0 14.48,12.073501 1.0455001,1.0455001 0 0 0 13.434499,11.028 Z" />
    <path
       id="path832"
       style="fill:#00cdff;fill-opacity:1;stroke-width:0.75"
       d="m 16.962,11.627722 -1.5,1.5 2.25,2.25 -2.25,2.249999 1.5,1.500001 3.75,-3.75 z" />
    <path
       id="path830"
       style="fill:#00cdff;fill-opacity:1;stroke-width:0.845331"
       d="m 12.021,14.6 a 1.2679998,1.2679998 0 0 0 -1.268,1.268 1.2679998,1.2679998 0 0 0 1.268,1.268 1.2679998,1.2679998 0 0 0 1.268,-1.268 1.2679998,1.2679998 0 0 0 -1.268,-1.268 z" />
    <path
       id="path4"
       style="fill:#00cdff;fill-opacity:1;stroke-width:0.7705"
       d="m 14.176,18.773 a 1.5410002,1.5410001 0 0 0 -1.541,1.541 1.5410002,1.5410001 0 0 0 1.541,1.541 1.5410002,1.5410001 0 0 0 1.541001,-1.541 A 1.5410002,1.5410001 0 0 0 14.176,18.773 Z" />
  </g>
  <g
     id="22-22-kdeconnect">
    <g
       id="g3845"
       transform="translate(4.5624737,38.781208)">
      <path
         inkscape:connector-curvature="0"
         style="fill:#d3dae3;fill-opacity:1;stroke:none"
         d="M 6,3 C 5.446,3 5,3.446 5,4 v 14 c 0,0.554 0.446,1 1,1 h 10 c 0.554,0 1,-0.446 1,-1 V 4 C 17,3.446 16.554,3 16,3 Z M 6,4 H 16 V 16 H 6 Z m 3.5,13 h 3 c 0.277,0 0.5,0.223 0.5,0.5 0,0.277 -0.223,0.5 -0.5,0.5 h -3 C 9.223,18 9,17.777 9,17.5 9,17.223 9.223,17 9.5,17 Z"
         id="rect3881" />
      <rect
         style="fill:#000000;fill-opacity:0;stroke:none"
         id="rect3841"
         width="22"
         height="22"
         x="0"
         y="0" />
    </g>
    <path
       id="path834-3"
       style="fill:#00cdff;fill-opacity:1;stroke-width:0.733001"
       d="M 13.605999,45.246 A 0.73299999,0.73299999 0 0 0 12.873,45.979001 0.73299999,0.73299999 0 0 0 13.605999,46.712 0.73299999,0.73299999 0 0 0 14.339,45.979001 0.73299999,0.73299999 0 0 0 13.605999,45.246 Z" />
    <path
       id="path832-6"
       style="fill:#00cdff;fill-opacity:1;stroke-width:0.602901"
       d="m 16.5758,45.645696 -1.2058,1.2058 1.808701,1.808701 -1.808701,1.808699 1.2058,1.2058 3.014501,-3.014499 z" />
    <path
       id="path830-7"
       style="fill:#00cdff;fill-opacity:1;stroke-width:0.766331"
       d="M 12.6235,47.943 A 1.1495004,1.1495004 0 0 0 11.474,49.0925 1.1495004,1.1495004 0 0 0 12.6235,50.242 1.1495004,1.1495004 0 0 0 13.773001,49.0925 1.1495004,1.1495004 0 0 0 12.6235,47.943 Z" />
    <path
       id="path4-5"
       style="fill:#00cdff;fill-opacity:1;stroke-width:0.683001"
       d="m 14.072,50.840946 a 1.3660001,1.366 0 0 0 -1.366,1.366 1.3660001,1.366 0 0 0 1.366,1.366 1.3660001,1.366 0 0 0 1.366,-1.366 1.3660001,1.366 0 0 0 -1.366,-1.366 z" />
  </g>
</svg>
