<?xml version="1.0" encoding="UTF-8" standalone="no"?>
<svg
   xmlns:dc="http://purl.org/dc/elements/1.1/"
   xmlns:cc="http://creativecommons.org/ns#"
   xmlns:rdf="http://www.w3.org/1999/02/22-rdf-syntax-ns#"
   xmlns:svg="http://www.w3.org/2000/svg"
   xmlns="http://www.w3.org/2000/svg"
   xmlns:sodipodi="http://sodipodi.sourceforge.net/DTD/sodipodi-0.dtd"
   xmlns:inkscape="http://www.inkscape.org/namespaces/inkscape"
   width="8"
   height="8.0540018"
   version="1.1"
   id="svg32"
   sodipodi:docname="window.svg"
   inkscape:version="1.0.1 (3bc2e813f5, 2020-09-07)">
  <metadata
     id="metadata38">
    <rdf:RDF>
      <cc:Work
         rdf:about="">
        <dc:format>image/svg+xml</dc:format>
        <dc:type
           rdf:resource="http://purl.org/dc/dcmitype/StillImage" />
      </cc:Work>
    </rdf:RDF>
  </metadata>
  <defs
     id="defs36" />
  <sodipodi:namedview
     pagecolor="#ffffff"
     bordercolor="#666666"
     borderopacity="1"
     objecttolerance="10"
     gridtolerance="10"
     guidetolerance="10"
     inkscape:pageopacity="0"
     inkscape:pageshadow="2"
     inkscape:window-width="1920"
     inkscape:window-height="1009"
     id="namedview34"
     showgrid="false"
     inkscape:zoom="6.9384855"
     inkscape:cx="34.298948"
     inkscape:cy="-3.374997"
     inkscape:window-x="0"
     inkscape:window-y="0"
     inkscape:window-maximized="1"
     inkscape:current-layer="svg32"
     inkscape:document-rotation="0"
     inkscape:lockguides="false" />
  <g
     id="window-list"
     transform="translate(4.616809,6.0200406)">
    <rect
       style="opacity:0.00100002"
       width="32"
       height="32"
       x="16"
       y="-16"
       ry="0"
       id="rect12" />
    <path
       style="opacity:1;fill:#d3dae3;fill-opacity:1"
       d="m 22.5,-12 c -1.385,0 -2.5,1.115 -2.5,2.5 v 5 c 0,1.385 1.115,2.5 2.5,2.5 h 5 c 1.385,0 2.5,-1.115 2.5,-2.5 v -5 c 0,-1.385 -1.115,-2.5 -2.5,-2.5 z m 14,0 c -1.385,0 -2.5,1.115 -2.5,2.5 v 5 c 0,1.385 1.115,2.5 2.5,2.5 h 5 c 1.385,0 2.5,-1.115 2.5,-2.5 v -5 c 0,-1.385 -1.115,-2.5 -2.5,-2.5 z m -14,1 h 5 c 0.848297,0 1.5,0.651703 1.5,1.5 v 5 c 0,0.8482972 -0.651703,1.5 -1.5,1.5 h -5 C 21.651703,-3 21,-3.6517028 21,-4.5 v -5 c 0,-0.848297 0.651703,-1.5 1.5,-1.5 z m 14,0 h 5 c 0.848297,0 1.5,0.651703 1.5,1.5 v 5 c 0,0.8482972 -0.651703,1.5 -1.5,1.5 h -5 C 35.651703,-3 35,-3.6517028 35,-4.5 v -5 c 0,-0.848297 0.651703,-1.5 1.5,-1.5 z M 22.5,2 C 21.115,2 20,3.115 20,4.5 v 5 c 0,1.385 1.115,2.5 2.5,2.5 h 5 C 28.885,12 30,10.885 30,9.5 v -5 C 30,3.115 28.885,2 27.5,2 Z m 14,0 C 35.115,2 34,3.115 34,4.5 v 5 c 0,1.385 1.115,2.5 2.5,2.5 h 5 C 42.885,12 44,10.885 44,9.5 v -5 C 44,3.115 42.885,2 41.5,2 Z m -14,1 h 5 C 28.348297,3 29,3.651703 29,4.5 v 5 c 0,0.848297 -0.651703,1.5 -1.5,1.5 h -5 C 21.651703,11 21,10.348297 21,9.5 v -5 C 21,3.651703 21.651703,3 22.5,3 Z m 14,0 h 5 C 42.348297,3 43,3.651703 43,4.5 v 5 c 0,0.848297 -0.651703,1.5 -1.5,1.5 h -5 C 35.651703,11 35,10.348297 35,9.5 v -5 C 35,3.651703 35.651703,3 36.5,3 Z"
       id="path14" />
  </g>
  <g
     id="16-16-window-close"
     transform="matrix(3.7798254,0,0,3.7798254,-44.010398,-960.60482)" />
  <g
     id="22-22-window-close"
     transform="translate(27,-3.0000791)" />
  <g
     id="window-close"
     transform="translate(54.000001,-8.0000505)" />
  <g
     id="window-pin">
    <g
       id="g952">
      <rect
         style="opacity:0.00100002"
         width="8"
         height="8"
         x="0"
         y="0"
         id="rect2" />
      <path
         d="M 6.8827466,2.1334976 C 6.6009183,1.222747 5.8600272,0.4816372 4.9492766,0.19977764 3.9853385,-0.0988163 2.9597441,0.06713693 2.1769155,0.6439498 1.3998525,1.2167783 0.93599279,2.1344039 0.93599279,3.0985295 c 0,0.6651098 0.21040641,1.2970008 0.60832851,1.8272512 L 3.983776,8.0540014 6.4232307,4.9255463 C 7.0187467,4.1315458 7.1863405,3.1138733 6.8827466,2.1334976 Z M 3.983776,4.7396243 c -0.9048131,0 -1.6411104,-0.7362973 -1.6411104,-1.6411104 0,-0.9048131 0.7362973,-1.6411105 1.6411104,-1.6411105 0.9048131,0 1.6411104,0.7362974 1.6411104,1.6411105 0,0.9048131 -0.7362973,1.6411104 -1.6411104,1.6411104 z"
         id="path2"
         style="fill:#d3dae3;fill-opacity:1;stroke-width:0.015625" />
      <path
         d="m 3.983776,1.9294194 c -0.6463285,0 -1.1722195,0.5227659 -1.1722195,1.1690945 0,0.6463285 0.525891,1.1722195 1.1722195,1.1722195 0.6463285,0 1.1722195,-0.525891 1.1722195,-1.1722195 C 5.1560111,2.4521853 4.6301045,1.9294194 3.983776,1.9294194 Z"
         id="path8"
         style="fill:#00a4cc;fill-opacity:1;stroke-width:0.015625" />
    </g>
  </g>
  <g
     id="window-unpin"
     transform="translate(-8)">
    <g
       id="g995">
      <rect
         style="opacity:0.00100002"
         width="8"
         height="8"
         x="-4.5019533e-07"
         y="-3.9111328e-07"
         id="rect9" />
      <path
         d="M 6.9267538,2.0868569 C 6.6449255,1.1761063 5.9040344,0.43499642 4.9932838,0.15313686 4.0293457,-0.14545708 3.0037513,0.02049615 2.2209227,0.59730902 1.4438597,1.1701375 0.98,2.0877631 0.98,3.0518887 c 0,0.6651098 0.2104064,1.2970008 0.6083285,1.8272512 L 4.0277832,8.0073606 6.4672379,4.8789055 C 7.0627539,4.084905 7.2303477,3.0672325 6.9267538,2.0868569 Z M 4.0277832,4.6929835 c -0.9048131,0 -1.6411104,-0.7362973 -1.6411104,-1.6411104 0,-0.9048131 0.7362973,-1.6411104 1.6411104,-1.6411104 0.9048131,0 1.6411104,0.7362973 1.6411104,1.6411104 0,0.9048131 -0.7362973,1.6411104 -1.6411104,1.6411104 z"
         id="path2-3"
         style="fill:#00a4cc;fill-opacity:1;stroke-width:0.015625" />
      <path
         d="m 4.0277832,1.8827786 c -0.6463285,0 -1.1722195,0.522766 -1.1722195,1.1690945 0,0.6463285 0.525891,1.1722195 1.1722195,1.1722195 0.6463285,0 1.1722195,-0.525891 1.1722195,-1.1722195 1.56e-5,-0.6463285 -0.525891,-1.1690945 -1.1722195,-1.1690945 z"
         id="path8-6"
         style="fill:#00a4cc;fill-opacity:1;stroke-width:0.015625" />
    </g>
  </g>
</svg>
