<?xml version="1.0" encoding="UTF-8" standalone="no"?>
<svg
   xmlns:dc="http://purl.org/dc/elements/1.1/"
   xmlns:cc="http://creativecommons.org/ns#"
   xmlns:rdf="http://www.w3.org/1999/02/22-rdf-syntax-ns#"
   xmlns:svg="http://www.w3.org/2000/svg"
   xmlns="http://www.w3.org/2000/svg"
   xmlns:xlink="http://www.w3.org/1999/xlink"
   xmlns:sodipodi="http://sodipodi.sourceforge.net/DTD/sodipodi-0.dtd"
   xmlns:inkscape="http://www.inkscape.org/namespaces/inkscape"
   inkscape:version="1.0.1 (3bc2e813f5, 2020-09-07)"
   sodipodi:docname="system-lock-screen.svg"
   id="svg6"
   version="1.1"
   viewBox="0 0 32 32">
  <metadata
     id="metadata10">
    <rdf:RDF>
      <cc:Work
         rdf:about="">
        <dc:format>image/svg+xml</dc:format>
        <dc:type
           rdf:resource="http://purl.org/dc/dcmitype/StillImage" />
      </cc:Work>
    </rdf:RDF>
  </metadata>
  <sodipodi:namedview
     inkscape:document-rotation="0"
     inkscape:current-layer="svg6"
     inkscape:window-maximized="1"
     inkscape:window-y="0"
     inkscape:window-x="0"
     inkscape:cy="-5.1376506"
     inkscape:cx="6.5833954"
     inkscape:zoom="7.0912495"
     showgrid="false"
     id="namedview8"
     inkscape:window-height="1007"
     inkscape:window-width="1920"
     inkscape:pageshadow="2"
     inkscape:pageopacity="0"
     guidetolerance="10"
     gridtolerance="10"
     objecttolerance="10"
     borderopacity="1"
     bordercolor="#666666"
     pagecolor="#ffffff" />
  <defs
     id="defs3051">
    <linearGradient
       inkscape:collect="always"
       id="linearGradient842">
      <stop
         style="stop-color:#ff00ff;stop-opacity:1"
         offset="0"
         id="stop838" />
      <stop
         style="stop-color:#ffcc00;stop-opacity:1"
         offset="1"
         id="stop840" />
    </linearGradient>
    <style
       id="current-color-scheme"
       type="text/css">
      .ColorScheme-Text {
        color:#eff0f1;
      }
      </style>
    <linearGradient
       inkscape:collect="always"
       xlink:href="#linearGradient842"
       id="linearGradient1194"
       x1="55.200001"
       y1="16.200001"
       x2="70.800003"
       y2="16.200001"
       gradientUnits="userSpaceOnUse"
       gradientTransform="matrix(0.92307688,0,0,0.92307688,-42.164729,1.1673685)" />
    <linearGradient
       inkscape:collect="always"
       xlink:href="#linearGradient842"
       id="linearGradient1186"
       x1="50"
       y1="16.200001"
       x2="76"
       y2="16.200001"
       gradientUnits="userSpaceOnUse"
       gradientTransform="matrix(0.92307688,0,0,0.92307688,-42.164729,1.1673685)" />
  </defs>
  <g
     id="g887">
    <path
       d="m 15.989116,23.321215 a 2.0023996,2.0023996 0 0 1 -2.000003,-2.000001 v -3.199999 h -3.199998 a 2.0000005,2.0000005 0 0 1 0,-4.000001 h 3.199998 v -3.199999 a 2.000003,2.000003 0 0 1 4.000002,0 v 3.199999 h 3.199998 a 2.0000005,2.0000005 0 0 1 0,4.000001 h -3.199998 v 3.199999 a 2.0023996,2.0023996 0 0 1 -1.999999,2.000001 z m -5.200001,-8.4 a 1.2000002,1.2000002 0 0 0 0,2.399999 h 3.6 a 0.40000001,0.40000001 0 0 1 0.400002,0.4 v 3.6 a 1.2,1.2 0 0 0 2.4,0 v -3.6 a 0.40000001,0.40000001 0 0 1 0.399996,-0.4 h 3.6 a 1.2000002,1.2000002 0 0 0 0,-2.399999 h -3.6 a 0.40000001,0.40000001 0 0 1 -0.399996,-0.4 v -3.6 a 1.2,1.2 0 0 0 -2.4,0 v 3.6 a 0.40000001,0.40000001 0 0 1 -0.400002,0.4 z"
       id="path8-5"
       style="fill:url(#linearGradient1194);fill-opacity:1.0;stroke-width:0.400003" />
    <path
       d="m 15.989106,28.121216 c -2.324078,0 -4.577142,-0.66367 -6.5191872,-1.922452 -0.281632,-0.181221 -0.36,-0.555912 -0.178773,-0.837549 0.18123,-0.279185 0.555916,-0.36 0.8375582,-0.178773 1.743672,1.131427 3.768974,1.728979 5.860402,1.728979 5.948573,0 10.790202,-4.839185 10.790202,-10.790205 0,-5.948571 -4.839182,-10.7902025 -10.790202,-10.7902025 -5.94857,0 -10.7902092,4.8416315 -10.7902092,10.7902025 0,2.635103 0.96,5.172245 2.703676,7.143674 0.22041,0.249795 0.198372,0.631836 -0.0514,0.854693 -0.252248,0.220408 -0.634282,0.198367 -0.854694,-0.05388 -1.939588,-2.191837 -3.007348,-5.01551 -3.007348,-7.944489 0,-6.6171427 5.382858,-11.9999985 11.9999982,-11.9999985 6.617144,0 12.000002,5.3828558 12.000002,11.9999985 0,6.617142 -5.382858,12.000002 -12.000002,12.000002 z"
       id="path6-36-36"
       style="fill:url(#linearGradient1186);fill-opacity:1;stroke-width:0.0244896" />
  </g>
</svg>
