<?xml version="1.0" encoding="UTF-8" standalone="no"?>
<svg
   xmlns:dc="http://purl.org/dc/elements/1.1/"
   xmlns:cc="http://creativecommons.org/ns#"
   xmlns:rdf="http://www.w3.org/1999/02/22-rdf-syntax-ns#"
   xmlns:svg="http://www.w3.org/2000/svg"
   xmlns="http://www.w3.org/2000/svg"
   xmlns:sodipodi="http://sodipodi.sourceforge.net/DTD/sodipodi-0.dtd"
   xmlns:inkscape="http://www.inkscape.org/namespaces/inkscape"
   width="32"
   height="32"
   version="1.1"
   id="svg12"
   sodipodi:docname="device.svg"
   inkscape:version="1.0.1 (3bc2e813f5, 2020-09-07)">
  <metadata
     id="metadata18">
    <rdf:RDF>
      <cc:Work
         rdf:about="">
        <dc:format>image/svg+xml</dc:format>
        <dc:type
           rdf:resource="http://purl.org/dc/dcmitype/StillImage" />
      </cc:Work>
    </rdf:RDF>
  </metadata>
  <defs
     id="defs16" />
  <sodipodi:namedview
     pagecolor="#ffffff"
     bordercolor="#666666"
     borderopacity="1"
     objecttolerance="10"
     gridtolerance="10"
     guidetolerance="10"
     inkscape:pageopacity="0"
     inkscape:pageshadow="2"
     inkscape:window-width="1920"
     inkscape:window-height="1016"
     id="namedview14"
     showgrid="false"
     inkscape:zoom="6.4673543"
     inkscape:cx="12.986271"
     inkscape:cy="30.212813"
     inkscape:window-x="0"
     inkscape:window-y="0"
     inkscape:window-maximized="1"
     inkscape:current-layer="svg12"
     inkscape:document-rotation="0"
     inkscape:lockguides="false">
    <inkscape:grid
       type="xygrid"
       id="grid849"
       originx="0"
       originy="0" />
  </sodipodi:namedview>
  <g
     id="g26"
     transform="matrix(0.02245078,0,0,0.02245078,4.88152,4.7085942)">
    <g
       transform="matrix(0.1,0,0,-0.1,0,512)"
       id="g16" />
  </g>
  <g
     id="g27"
     transform="matrix(0.01632784,0,0,0.01632784,34.907742,12.825068)">
    <g
       transform="matrix(0.1,0,0,-0.1,0,512)"
       id="g953" />
  </g>
  <g
     id="device-notifier">
    <rect
       style="opacity:0.00100002"
       width="32"
       height="32"
       x="0"
       y="0"
       id="rect7" />
    <path
       d="M 19.922376,6.5084873 V 2.209 H 12.197469 V 6.5084873 C 9.9829801,6.5956397 8.232,7.6414609 8.232,8.9196875 V 27.424917 c 0,1.336327 1.905479,2.411199 4.274463,2.411199 h 7.055417 c 2.368988,0 4.274467,-1.074872 4.274467,-2.411199 V 8.9196875 C 23.887853,7.6414609 22.136864,6.5956393 19.922376,6.5084873 Z M 16.111417,2.741 H 19.21 V 6.5084873 H 16.111417 V 4.6201992 h 0.309004 v -0.551961 h -0.309004 z m -3.253417,0 h 3.150418 v 1.3853391 h 0.309006 v 0.406708 H 16.008418 V 6.4794374 H 12.858 Z m 9.836,24.129001 c 0,0.435759 -0.917629,1.313 -1.74163,1.313 h -9.836394 c -0.772501,0 -1.741976,-0.848189 -1.741976,-1.313 v -17.395 c 0,-0.435759 0.917976,-1.313 1.741976,-1.313 h 9.887894 c 0.772501,0 1.74213,0.848189 1.74213,1.313 v 17.395 z"
       id="path4-3-3"
       style="fill:#d3dae3;fill-opacity:1;stroke-width:0.386799"
       sodipodi:nodetypes="ccccssssscccccccccccccccccccccssssssscc" />
    <path
       d="m 18.347082,10.99 h -4.391167 c -0.353313,0 -0.630915,0.277602 -0.630915,0.630914 v 13.451104 c 0,0.353312 0.277602,0.630915 0.630915,0.630915 h 4.416403 c 0.353313,0 0.630915,-0.277603 0.630915,-0.630915 V 11.620914 c 0,-0.353312 -0.302839,-0.630914 -0.656151,-0.630914 z m 0.504732,14.082018 c 0,0.277602 -0.22713,0.479495 -0.479496,0.479495 h -4.416403 c -0.277603,0 -0.479496,-0.227129 -0.479496,-0.479495 V 11.620914 c 0,-0.277602 0.22713,-0.479495 0.479496,-0.479495 h 4.416403 c 0.277603,0 0.479496,0.227129 0.479496,0.479495 z"
       id="path6-6"
       style="fill:#00cdff;fill-opacity:1;stroke-width:0.252366" />
    <path
       d="m 17.337101,12.100713 h -2.397476 c -0.378549,0 -0.706625,0.302839 -0.706625,0.706625 v 5.501577 c 0,0.378549 0.302839,0.706625 0.706625,0.706625 h 2.397476 c 0.378549,0 0.706625,-0.30284 0.706625,-0.706625 v -5.501577 c 0,-0.403786 -0.302839,-0.706625 -0.706625,-0.706625 z m 0.378549,1.33754 c 0,0.201892 -0.176656,0.378548 -0.378549,0.378548 h -2.29653 c -0.201893,0 -0.378549,-0.176656 -0.378549,-0.378548 V 13.31207 c 0,-0.201893 0.176656,-0.378549 0.378549,-0.378549 h 2.29653 c 0.201893,0 0.378549,0.176656 0.378549,0.378549 z"
       id="path8-7"
       style="fill:#00cdff;fill-opacity:1;stroke-width:0.252366" />
    <rect
       x="13.288998"
       y="3.5929999"
       width="1.5345455"
       height="1.0549999"
       id="rect10"
       style="fill:#00cdff;fill-opacity:1;stroke-width:0.479547" />
    <rect
       x="17.205"
       y="3.5929999"
       width="1.5345457"
       height="1.0549999"
       id="rect12"
       style="fill:#00cdff;fill-opacity:1;stroke-width:0.479547" />
  </g>
  <g
     id="22-22-device-notifier">
    <rect
       style="opacity:0.00100002"
       width="22"
       height="22"
       x="32"
       y="10.000001"
       id="rect2" />
    <path
       d="m 45.543751,15.059009 v -2.990008 h -4.927346 v 2.990008 C 39.203881,15.109519 38.087,15.715161 38.087,16.455437 v 10.717144 c 0,0.773922 1.215416,1.39642 2.726488,1.39642 h 4.500316 c 1.51108,0 2.726489,-0.622498 2.726489,-1.39642 V 16.455437 c 0.03287,-0.740276 -1.084025,-1.345953 -2.496542,-1.396428 z m -2.430823,-2.489008 h 1.900963 v 2.489008 h -1.900963 v -1.093588 h 0.197087 v -0.319659 h -0.197087 z m -1.999554,0 h 1.933841 v 1.109409 h 0.197089 v 0.235543 h -0.197089 v 1.127238 h -1.933841 z m 6.339791,14.365 c 0,0.252358 -0.726844,0.771 -1.252425,0.771 h -6.274178 c -0.492739,0 -1.219551,-0.501809 -1.219551,-0.771 v -10.242 c 0,-0.252361 0.693961,-0.771 1.219551,-0.771 h 6.307032 c 0.492727,0 1.219571,0.501812 1.219571,0.771 z"
       id="path4-3-3-3"
       style="fill:#d3dae3;fill-opacity:1;stroke-width:0.2351"
       sodipodi:nodetypes="ccccssssscccccccccccccccccccccssssssscc" />
    <path
       d="m 43.552339,20.311151 h -1.080018 c -0.17053,0 -0.318321,0.136423 -0.318321,0.318321 v 2.478357 c 0,0.170529 0.136421,0.318322 0.318321,0.318322 h 1.080018 c 0.170528,0 0.318322,-0.136424 0.318322,-0.318322 v -2.478357 c 0,-0.181898 -0.136426,-0.318321 -0.318322,-0.318321 z m 0.170528,0.602536 c 0,0.09095 -0.0796,0.170529 -0.170528,0.170529 h -1.034547 c -0.09094,0 -0.170522,-0.07958 -0.170522,-0.170529 v -0.05684 c 0,-0.09095 0.07957,-0.170529 0.170522,-0.170529 h 1.034547 c 0.09095,0 0.170528,0.07958 0.170528,0.170529 z"
       id="path8-7-6"
       style="fill:#00cdff;fill-opacity:1;stroke-width:0.113682" />
    <path
       d="m 44.076934,19.643 h -2.122915 c -0.170814,0 -0.305019,0.134205 -0.305019,0.30502 v 6.502958 c 0,0.170817 0.134205,0.305022 0.305019,0.305022 h 2.135118 c 0.170809,0 0.305019,-0.134205 0.305019,-0.305022 V 19.94802 c 0,-0.170815 -0.146409,-0.30502 -0.317222,-0.30502 z m 0.244018,6.807977 c 0,0.134208 -0.109813,0.231813 -0.231815,0.231813 h -2.135118 c -0.134207,0 -0.231813,-0.109798 -0.231813,-0.231813 V 19.94802 c 0,-0.134209 0.1098,-0.231814 0.231813,-0.231814 h 2.135118 c 0.134211,0 0.231815,0.109802 0.231815,0.231814 z"
       id="path6-6-7"
       style="fill:#00cdff;fill-opacity:1;stroke-width:0.122005" />
  </g>
</svg>
