<?xml version="1.0" encoding="UTF-8" standalone="no"?>
<svg
   xmlns:dc="http://purl.org/dc/elements/1.1/"
   xmlns:cc="http://creativecommons.org/ns#"
   xmlns:rdf="http://www.w3.org/1999/02/22-rdf-syntax-ns#"
   xmlns:svg="http://www.w3.org/2000/svg"
   xmlns="http://www.w3.org/2000/svg"
   xmlns:sodipodi="http://sodipodi.sourceforge.net/DTD/sodipodi-0.dtd"
   xmlns:inkscape="http://www.inkscape.org/namespaces/inkscape"
   width="32"
   height="32"
   version="1.1"
   id="svg12"
   sodipodi:docname="drive.svg"
   inkscape:version="1.0.1 (3bc2e813f5, 2020-09-07)">
  <metadata
     id="metadata18">
    <rdf:RDF>
      <cc:Work
         rdf:about="">
        <dc:format>image/svg+xml</dc:format>
        <dc:type
           rdf:resource="http://purl.org/dc/dcmitype/StillImage" />
      </cc:Work>
    </rdf:RDF>
  </metadata>
  <defs
     id="defs16" />
  <sodipodi:namedview
     pagecolor="#ffffff"
     bordercolor="#666666"
     borderopacity="1"
     objecttolerance="10"
     gridtolerance="10"
     guidetolerance="10"
     inkscape:pageopacity="0"
     inkscape:pageshadow="2"
     inkscape:window-width="1920"
     inkscape:window-height="1016"
     id="namedview14"
     showgrid="false"
     inkscape:zoom="19.625"
     inkscape:cx="23.786298"
     inkscape:cy="17.71906"
     inkscape:window-x="0"
     inkscape:window-y="0"
     inkscape:window-maximized="1"
     inkscape:current-layer="svg12"
     inkscape:document-rotation="0" />
  <g
     id="drive-harddisk">
    <rect
       style="opacity:0.00100002"
       width="32"
       height="32"
       x="0"
       y="0"
       id="rect7" />
    <path
       d="m 25.5,27.2 v 0 -21 C 25.5,5.2058875 24.694113,4.4 23.7,4.4 H 9.3 C 8.3058875,4.4 7.5,5.2058875 7.5,6.2 v 21 0 1.2 h 18 z M 8.7,6.2 C 8.7,5.8686292 8.9686292,5.6 9.3,5.6 h 14.4 c 0.331371,0 0.6,0.2686292 0.6,0.6 v 21 H 8.7 Z"
       id="path4-3"
       style="fill:#d3dae3;fill-opacity:1;stroke-width:0.6"
       sodipodi:nodetypes="ccsssscccccssssccs" />
    <path
       d="m 16.5,12.2 a 2.4,2.4 0 1 0 2.4,2.4 2.4,2.4 0 0 0 -2.4,-2.4 z m 0,3.6 a 1.2,1.2 0 1 1 1.2,-1.2 1.2,1.2 0 0 1 -1.2,1.2 z"
       id="path6"
       style="fill:#00a4cc;fill-opacity:1;stroke-width:0.6" />
    <path
       d="m 16.5,8 a 6.6,6.6 0 0 0 -3.984,11.85 l -2.544,4.662 a 0.6,0.6 0 0 0 0,0.6 0.6,0.6 0 0 0 0.528,0.288 h 6.6 a 0.6,0.6 0 0 0 0,-1.2 H 14.7 V 20.942 A 6.396,6.396 0 0 0 16.5,21.2 6.6,6.6 0 0 0 16.5,8 Z m -3,16.2 H 11.508 L 13.5,20.552 Z m 3,-4.2 A 5.286,5.286 0 0 1 14.7,19.682 V 18.2 a 0.6,0.6 0 0 0 -0.45,-0.6 0.6,0.6 0 0 0 -0.678,0.294 L 13.098,18.8 A 5.4,5.4 0 1 1 16.5,20 Z"
       id="path8"
       style="fill:#d3dae3;fill-opacity:1;stroke-width:0.6" />
  </g>
  <g
     id="22-22-drive-harddisk">
    <rect
       style="opacity:0.00100002"
       width="22"
       height="22"
       x="32"
       y="10.000001"
       id="rect2" />
    <path
       d="m 49,28.000001 h 10e-7 v -14 c 0,-0.662742 -0.537258,-1.2 -1.2,-1.2 h -9.6 c -0.662742,0 -1.2,0.537258 -1.2,1.2 v 14 H 37 v 0.8 h 12 z m -11.199999,-14 c 0,-0.220914 0.179086,-0.4 0.4,-0.4 h 9.6 c 0.220914,0 0.4,0.179086 0.4,0.4 v 14 h -10.4 z"
       id="path4-7"
       style="fill:#d3dae3;fill-opacity:1;stroke-width:0.4"
       sodipodi:nodetypes="ccsssscccccssssccs" />
    <path
       d="m 43.000001,18.000001 a 1.6,1.6 0 1 0 1.6,1.6 1.6,1.6 0 0 0 -1.6,-1.6 z m 0,2.4 a 0.8,0.8 0 1 1 0.8,-0.8 0.8,0.8 0 0 1 -0.8,0.8 z"
       id="path6-5"
       style="fill:#277eff;fill-opacity:1;stroke-width:0.4" />
    <path
       d="m 43.000001,15.200001 a 4.4,4.4 0 0 0 -2.656,7.9 l -1.696,3.108 a 0.4,0.4 0 0 0 0,0.4 0.4,0.4 0 0 0 0.352,0.192 h 4.4 a 0.4,0.4 0 0 0 0,-0.8 h -1.6 v -2.172 a 4.264,4.264 0 0 0 1.2,0.172 4.4,4.4 0 0 0 0,-8.8 z m -2,10.8 h -1.328 l 1.328,-2.432 z m 2,-2.8 a 3.524,3.524 0 0 1 -1.2,-0.212 v -0.988 a 0.4,0.4 0 0 0 -0.3,-0.4 0.4,0.4 0 0 0 -0.452,0.196 l -0.316,0.604 a 3.6,3.6 0 1 1 2.268,0.8 z"
       id="path8-3"
       style="fill:#d3dae3;fill-opacity:1;stroke-width:0.4" />
  </g>
</svg>
