<?xml version="1.0" encoding="UTF-8" standalone="no"?>
<svg
   xmlns:dc="http://purl.org/dc/elements/1.1/"
   xmlns:cc="http://creativecommons.org/ns#"
   xmlns:rdf="http://www.w3.org/1999/02/22-rdf-syntax-ns#"
   xmlns:svg="http://www.w3.org/2000/svg"
   xmlns="http://www.w3.org/2000/svg"
   xmlns:sodipodi="http://sodipodi.sourceforge.net/DTD/sodipodi-0.dtd"
   xmlns:inkscape="http://www.inkscape.org/namespaces/inkscape"
   width="32"
   height="32"
   version="1"
   id="svg12"
   sodipodi:docname="klipper.svg"
   inkscape:version="1.0.1 (3bc2e813f5, 2020-09-07)">
  <metadata
     id="metadata18">
    <rdf:RDF>
      <cc:Work
         rdf:about="">
        <dc:format>image/svg+xml</dc:format>
        <dc:type
           rdf:resource="http://purl.org/dc/dcmitype/StillImage" />
      </cc:Work>
    </rdf:RDF>
  </metadata>
  <defs
     id="defs16" />
  <sodipodi:namedview
     pagecolor="#ffffff"
     bordercolor="#666666"
     borderopacity="1"
     objecttolerance="10"
     gridtolerance="10"
     guidetolerance="10"
     inkscape:pageopacity="0"
     inkscape:pageshadow="2"
     inkscape:window-width="1920"
     inkscape:window-height="1007"
     id="namedview14"
     showgrid="false"
     inkscape:zoom="9.8125"
     inkscape:cx="25.121519"
     inkscape:cy="22.89387"
     inkscape:window-x="0"
     inkscape:window-y="0"
     inkscape:window-maximized="1"
     inkscape:current-layer="svg12"
     inkscape:document-rotation="0"
     inkscape:lockguides="false" />
  <g
     id="klipper">
    <rect
       style="opacity:0.00100002"
       width="32"
       height="32"
       x="0"
       y="0"
       id="rect7" />
    <rect
       x="8.8421583"
       y="11.008061"
       width="13.116341"
       height="0.70647788"
       id="rect2-3"
       style="fill:#00cdff;fill-opacity:1;stroke-width:0.749977" />
    <rect
       x="8.8421583"
       y="14.012468"
       width="13.116341"
       height="0.70647788"
       id="rect4"
       style="fill:#00cdff;fill-opacity:1;stroke-width:0.749977" />
    <path
       d="m 25.021405,12.69551 0.447736,-0.776226 c 0.32024,-0.554233 1.028968,-0.742477 1.582451,-0.423737 v 0 c 0.554233,0.31949 0.743227,1.027468 0.423737,1.581701 l -0.448486,0.776226 z"
       id="path6"
       style="fill:#00cdff;fill-opacity:1;stroke-width:0.749977" />
    <path
       d="m 24.808412,13.062998 -5.054842,8.756727 -0.119996,1.92144 c -0.0068,0.140995 0.0525,0.263242 0.161245,0.32549 0.107996,0.06225 0.242242,0.05475 0.362988,-0.024 l 1.60195,-1.064216 5.055592,-8.755227 z m -4.14212,10.083435 -0.512984,-0.29549 0.03975,-0.778476 1.127965,0.65098 z"
       id="path8"
       style="fill:#d3dae3;fill-opacity:1;stroke-width:0.749977" />
    <polygon
       points="19.43,27.038 19.489,26.096 5.871,26.096 5.871,27.038 "
       id="polygon10"
       transform="matrix(0.74997656,0,0,0.74997656,4.4390487,3.4542983)"
       style="fill:#00cdff;fill-opacity:1" />
    <polygon
       points="23.069,18.084 5.871,18.084 5.871,19.026 22.525,19.026 "
       id="polygon12"
       transform="matrix(0.74997656,0,0,0.74997656,4.4390487,3.4542983)"
       style="fill:#00cdff;fill-opacity:1" />
    <polygon
       points="20.757,22.09 5.871,22.09 5.871,23.032 20.213,23.032 "
       id="polygon14"
       transform="matrix(0.74997656,0,0,0.74997656,4.4390487,3.4542983)"
       style="fill:#00cdff;fill-opacity:1" />
    <path
       d="m 23.642229,21.675031 v 6.316013 c 0,0.09573 -0.07087,0.174821 -0.156657,0.174821 H 7.2141902 c -0.085788,0 -0.1559104,-0.07909 -0.1559104,-0.174821 V 7.2065518 c 0,-0.095735 0.070123,-0.1739879 0.1559104,-0.1739879 h 3.8843338 l -0.223049,1.3544426 c -0.03059,0.1889725 0.0843,0.3429811 0.256618,0.3429811 h 8.437815 c 0.171575,0 0.287203,-0.154841 0.255872,-0.3429811 L 19.602731,7.0325639 h 3.882841 c 0.08579,0 0.156657,0.078253 0.156657,0.1739879 v 6.3043612 l 1.063025,-2.054557 V 7.2065518 c 0,-0.7492307 -0.546806,-1.3594376 -1.219682,-1.3594376 H 19.407283 L 19.312543,5.2702066 C 19.281958,5.081234 19.115604,4.926393 18.944027,4.926393 H 17.57664 c 0,-1.2229111 -0.997378,-2.214393 -2.226759,-2.214393 -1.228634,0 -2.226013,0.9914819 -2.226013,2.214393 h -1.366641 c -0.171577,0 -0.33793,0.1556736 -0.369261,0.3438136 l -0.09474,0.5777402 H 7.2141902 C 6.5428055,5.8479468 5.996,6.4573211 5.996,7.2073843 V 27.991878 c 0,0.74923 0.5460595,1.36027 1.2181902,1.36027 H 23.486318 c 0.67213,0 1.219682,-0.610208 1.219682,-1.36027 V 19.622139 Z M 15.349881,4.011499 c 0.554266,0 1.004094,0.5011521 1.004094,1.1196837 0,0.6185316 -0.449828,1.1188513 -1.004094,1.1188513 -0.553519,0 -1.002601,-0.5011522 -1.002601,-1.1196838 0,-0.6185316 0.449082,-1.1188512 1.002601,-1.1188512 z"
       id="path16"
       style="fill:#d3dae3;fill-opacity:1;stroke-width:0.788045" />
  </g>
  <g
     id="22-22-klipper">
    <rect
       style="opacity:0.00100002"
       width="22"
       height="22"
       x="32"
       y="10"
       id="rect2" />
    <rect
       x="37.135677"
       y="16.655849"
       width="8.7442312"
       height="0.47098541"
       id="rect2-3-6"
       style="fill:#00cdff;fill-opacity:1;stroke-width:0.499978" />
    <rect
       x="37.135677"
       y="18.658789"
       width="8.7442312"
       height="0.47098541"
       id="rect4-7"
       style="fill:#00cdff;fill-opacity:1;stroke-width:0.499978" />
    <path
       d="m 47.921835,17.780814 0.298489,-0.517483 c 0.213494,-0.369489 0.685979,-0.494985 1.054967,-0.282492 v 0 c 0.369489,0.212993 0.495485,0.684979 0.282492,1.054468 l -0.298991,0.517484 z"
       id="path6-5"
       style="fill:#00cdff;fill-opacity:1;stroke-width:0.499978" />
    <path
       d="m 47.779838,18.025806 -3.369893,5.83782 -0.08,1.280962 c -0.0044,0.09399 0.03493,0.17549 0.107494,0.216992 0.072,0.04146 0.1615,0.03647 0.241995,-0.016 l 1.067968,-0.709474 3.370391,-5.836823 z m -2.761412,6.722294 -0.341991,-0.197002 0.02651,-0.518979 0.751973,0.433984 z"
       id="path8-3"
       style="fill:#d3dae3;fill-opacity:1;stroke-width:0.499978" />
    <polygon
       points="5.871,26.096 5.871,27.038 19.43,27.038 19.489,26.096 "
       id="polygon10-5"
       transform="matrix(0.49998434,0,0,0.49998434,34.200264,11.620008)"
       style="fill:#00cdff;fill-opacity:1" />
    <polygon
       points="5.871,19.026 22.525,19.026 23.069,18.084 5.871,18.084 "
       id="polygon12-6"
       transform="matrix(0.49998434,0,0,0.49998434,34.200264,11.620008)"
       style="fill:#00cdff;fill-opacity:1" />
    <polygon
       points="5.871,23.032 20.213,23.032 20.757,22.09 5.871,22.09 "
       id="polygon14-2"
       transform="matrix(0.49998434,0,0,0.49998434,34.200264,11.620008)"
       style="fill:#00cdff;fill-opacity:1" />
    <path
       d="m 47.065361,23.259146 v 3.793372 c 0,0.05745 -0.04748,0.105005 -0.104994,0.105005 H 36.0547 c -0.05745,0 -0.104497,-0.04747 -0.104497,-0.105005 V 14.569415 c 0,-0.0575 0.04706,-0.104497 0.104497,-0.104497 h 2.603432 l -0.149508,0.813475 c -0.02046,0.113496 0.05653,0.205993 0.171995,0.205993 h 5.655326 c 0.115002,0 0.192495,-0.093 0.171498,-0.205993 l -0.149495,-0.813475 h 2.602419 c 0.05749,0 0.104994,0.047 0.104994,0.104497 v 3.786382 l 0.712478,-1.233961 v -2.552421 c 0,-0.449986 -0.36649,-0.816475 -0.817472,-0.816475 h -2.733413 l -0.06349,-0.346488 c -0.02045,-0.113497 -0.131995,-0.206494 -0.246992,-0.206494 H 43 C 43,12.46548 42.331522,11.87 41.507558,11.87 c -0.823475,0 -1.491954,0.59548 -1.491954,1.329958 H 39.09963 c -0.115,0 -0.226492,0.0935 -0.247489,0.206494 l -0.06347,0.346989 h -2.733909 c -0.449993,0 -0.816472,0.365988 -0.816472,0.816474 v 12.483103 c 0,0.449991 0.365998,0.816982 0.816472,0.816982 H 46.96092 c 0.450489,0 0.817476,-0.366487 0.817476,-0.816982 V 22.026183 Z M 41.507536,12.650475 c 0.371483,0 0.672983,0.30099 0.672983,0.672479 0,0.371488 -0.3015,0.671979 -0.672983,0.671979 -0.370982,0 -0.671975,-0.30099 -0.671975,-0.672479 0,-0.371488 0.300993,-0.671979 0.671975,-0.671979 z"
       id="path16-9"
       style="fill:#d3dae3;fill-opacity:1;stroke-width:0.499978" />
  </g>
</svg>
