<?xml version="1.0" encoding="UTF-8" standalone="no"?>
<svg
   xmlns:dc="http://purl.org/dc/elements/1.1/"
   xmlns:cc="http://creativecommons.org/ns#"
   xmlns:rdf="http://www.w3.org/1999/02/22-rdf-syntax-ns#"
   xmlns:svg="http://www.w3.org/2000/svg"
   xmlns="http://www.w3.org/2000/svg"
   xmlns:sodipodi="http://sodipodi.sourceforge.net/DTD/sodipodi-0.dtd"
   xmlns:inkscape="http://www.inkscape.org/namespaces/inkscape"
   width="32"
   height="32"
   version="1.1"
   id="svg12"
   sodipodi:docname="kmail.svg"
   inkscape:version="1.0.2 (e86c870879, 2021-01-15)">
  <metadata
     id="metadata18">
    <rdf:RDF>
      <cc:Work
         rdf:about="">
        <dc:format>image/svg+xml</dc:format>
        <dc:type
           rdf:resource="http://purl.org/dc/dcmitype/StillImage" />
      </cc:Work>
    </rdf:RDF>
  </metadata>
  <defs
     id="defs16" />
  <sodipodi:namedview
     pagecolor="#ffffff"
     bordercolor="#666666"
     borderopacity="1"
     objecttolerance="10"
     gridtolerance="10"
     guidetolerance="10"
     inkscape:pageopacity="0"
     inkscape:pageshadow="2"
     inkscape:window-width="1920"
     inkscape:window-height="1007"
     id="namedview14"
     showgrid="false"
     inkscape:zoom="9.8125"
     inkscape:cx="-7.1996322"
     inkscape:cy="10.845736"
     inkscape:window-x="0"
     inkscape:window-y="0"
     inkscape:window-maximized="1"
     inkscape:current-layer="svg12"
     inkscape:document-rotation="0">
    <inkscape:grid
       type="xygrid"
       id="grid835"
       originx="0"
       originy="0" />
  </sodipodi:namedview>
  <g
     id="kmail">
    <rect
       style="opacity:0.00100002"
       width="32"
       height="32"
       x="0"
       y="0"
       id="rect7" />
    <path
       inkscape:connector-curvature="0"
       id="path4252"
       style="font-style:normal;font-variant:normal;font-weight:normal;font-stretch:normal;font-size:18.5263px;line-height:125%;font-family:'Product Sans';-inkscape-font-specification:'Product Sans';letter-spacing:0px;word-spacing:0px;fill:#d3dae3;fill-opacity:1;stroke:none;stroke-width:0.750006;stroke-linecap:butt;stroke-linejoin:miter;stroke-miterlimit:4;stroke-dasharray:none;stroke-opacity:0.85"
       d="m 16.078448,4 q 5.053248,0 8.50438,3.5128773 3.450971,3.5131077 3.450971,8.4870217 0,2.798088 -1.201631,4.632195 -1.170884,1.834257 -3.420249,1.834257 -2.311117,0 -3.451109,-2.26944 -1.509892,2.26944 -4.313834,2.26944 -2.526767,0 -4.252127,-1.771997 -1.725645,-1.803182 -1.725645,-4.569902 0,-2.735763 1.725645,-4.539087 1.72536,-1.8029789 4.128838,-1.8029789 2.372663,0 3.944138,1.8342669 h 0.123609 v -1.398948 h 2.218528 v 8.113947 q 0,0.808267 0.431334,1.461024 0.462148,0.65277 1.386706,0.65277 2.187683,0 2.187683,-4.445547 0,-4.10355 -2.834815,-6.9325743 -2.83488,-2.8289633 -6.902126,-2.8289633 -4.067269,0 -6.902273,2.8289633 -2.8346719,2.8290243 -2.8346719,6.9325743 0,4.103776 2.8346719,6.932775 2.835004,2.828832 6.902273,2.828832 2.187657,0 3.913132,-0.870366 l 0.862873,2.113956 Q 18.697737,28 16.078744,28 10.963833,28 7.4818033,24.518057 4,21.00518 4,15.999899 4,11.025985 7.4818033,7.5128773 10.994488,4 16.078744,4 Z m -2.865696,15.015574 q 1.109339,1.088101 2.649932,1.088101 1.540637,0 2.619128,-1.088101 1.109314,-1.088169 1.109314,-2.891122 0,-1.803325 -1.109314,-2.891263 -1.078491,-1.088101 -2.619128,-1.088101 -1.540593,0 -2.649932,1.088101 -1.078466,1.087938 -1.078466,2.891263 0,1.802953 1.078466,2.891122 z" />
  </g>
  <g
     id="22-22-kmail">
    <rect
       style="opacity:0.00100002"
       width="22"
       height="22"
       x="32"
       y="10"
       id="rect2" />
    <path
       inkscape:connector-curvature="0"
       id="path4252-3"
       style="font-style:normal;font-variant:normal;font-weight:normal;font-stretch:normal;font-size:18.5263px;line-height:125%;font-family:'Product Sans';-inkscape-font-specification:'Product Sans';letter-spacing:0px;word-spacing:0px;fill:#d3dae3;fill-opacity:1;stroke:none;stroke-width:0.500006;stroke-linecap:butt;stroke-linejoin:miter;stroke-miterlimit:4;stroke-dasharray:none;stroke-opacity:0.85"
       d="m 43.052298,13 q 3.368838,0 5.669584,2.341916 2.300648,2.342068 2.300648,5.658011 0,1.865396 -0.801082,3.088134 -0.780591,1.22284 -2.280169,1.22284 -1.540744,0 -2.300737,-1.51296 -1.006593,1.51296 -2.875888,1.51296 -1.684515,0 -2.834756,-1.181335 -1.150429,-1.202133 -1.150429,-3.046613 0,-1.82384 1.150429,-3.026043 1.150241,-1.201994 2.752562,-1.201994 1.581788,0 2.629418,1.222856 h 0.08241 V 17.14514 h 1.479024 v 5.409295 q 0,0.538844 0.287554,0.974013 0.308099,0.435181 0.924471,0.435181 1.458453,0 1.458453,-2.963702 0,-2.73568 -1.889879,-4.621713 -1.88992,-1.885967 -4.601411,-1.885967 -2.711515,0 -4.601519,1.885967 -1.889774,1.886033 -1.889774,4.621713 0,2.735854 1.889774,4.621857 1.890004,1.885887 4.601519,1.885887 1.458435,0 2.608747,-0.580247 l 0.575257,1.409309 Q 44.798487,29 43.0525,29 39.642553,29 37.321207,26.678704 35,24.336785 35,20.999927 35,17.683984 37.321207,15.341916 39.662994,13 43.0525,13 Z m -1.91045,10.01038 q 0.739548,0.725401 1.766606,0.725401 1.027098,0 1.746087,-0.725401 0.739545,-0.725444 0.739545,-1.927427 0,-1.202201 -0.739545,-1.927495 -0.718989,-0.725402 -1.746087,-0.725402 -1.027058,0 -1.766606,0.725402 -0.718992,0.725294 -0.718992,1.927495 0,1.201983 0.718992,1.927427 z" />
  </g>
</svg>
