<?xml version="1.0" encoding="UTF-8" standalone="no"?>
<svg
   xmlns:dc="http://purl.org/dc/elements/1.1/"
   xmlns:cc="http://creativecommons.org/ns#"
   xmlns:rdf="http://www.w3.org/1999/02/22-rdf-syntax-ns#"
   xmlns:svg="http://www.w3.org/2000/svg"
   xmlns="http://www.w3.org/2000/svg"
   xmlns:xlink="http://www.w3.org/1999/xlink"
   xmlns:sodipodi="http://sodipodi.sourceforge.net/DTD/sodipodi-0.dtd"
   xmlns:inkscape="http://www.inkscape.org/namespaces/inkscape"
   width="32"
   height="32"
   version="1.1"
   id="svg12"
   sodipodi:docname="kteatime.svg"
   inkscape:version="1.0.1 (3bc2e813f5, 2020-09-07)">
  <metadata
     id="metadata18">
    <rdf:RDF>
      <cc:Work
         rdf:about="">
        <dc:format>image/svg+xml</dc:format>
        <dc:type
           rdf:resource="http://purl.org/dc/dcmitype/StillImage" />
      </cc:Work>
    </rdf:RDF>
  </metadata>
  <defs
     id="defs16">
    <linearGradient
       inkscape:collect="always"
       id="linearGradient839">
      <stop
         style="stop-color:#00cdff;stop-opacity:1"
         offset="0"
         id="stop835" />
      <stop
         style="stop-color:#0067ff;stop-opacity:1"
         offset="1"
         id="stop837" />
    </linearGradient>
    <linearGradient
       inkscape:collect="always"
       xlink:href="#linearGradient839"
       id="linearGradient841"
       x1="14.68653"
       y1="16.003551"
       x2="23.987057"
       y2="23.655323"
       gradientUnits="userSpaceOnUse" />
    <linearGradient
       inkscape:collect="always"
       xlink:href="#linearGradient839"
       id="linearGradient849"
       x1="41.491066"
       y1="18.987919"
       x2="49.356209"
       y2="25.627642"
       gradientUnits="userSpaceOnUse" />
  </defs>
  <sodipodi:namedview
     pagecolor="#ffffff"
     bordercolor="#666666"
     borderopacity="1"
     objecttolerance="10"
     gridtolerance="10"
     guidetolerance="10"
     inkscape:pageopacity="0"
     inkscape:pageshadow="2"
     inkscape:window-width="1920"
     inkscape:window-height="1016"
     id="namedview14"
     showgrid="false"
     inkscape:zoom="6.9384853"
     inkscape:cx="28.940116"
     inkscape:cy="16.190576"
     inkscape:window-x="0"
     inkscape:window-y="0"
     inkscape:window-maximized="1"
     inkscape:current-layer="svg12"
     inkscape:document-rotation="0"
     inkscape:lockguides="false" />
  <g
     id="kteatime">
    <rect
       style="opacity:0.00100002"
       width="32"
       height="32"
       x="0"
       y="0"
       id="rect7" />
    <path
       id="kteatime-3"
       d="M 25.239923,9.7300864 H 23.92737 C 23.630702,8.6096104 22.608462,7.7811614 21.396029,7.7811614 H 7.197185 c -1.443873,0 -2.618463,1.1746161 -2.618463,2.6184846 v 4.93689 c 0,3.733849 2.286404,6.943389 5.532584,8.302914 H 6.767955 c -1.258704,7.5e-5 -2.336562,-0.05224 -2.335006,0.86304 0.002,0.840833 1.203644,0.602352 2.462287,0.604687 l 14.823355,0.02758 c 1.25867,0.0028 2.560357,0.264248 2.54434,-0.721961 -0.01294,-0.789674 -1.178925,-0.773274 -2.437594,-0.773274 H 18.48008 c 1.959701,-0.820406 3.570177,-2.314274 4.538759,-4.191559 h 2.221084 c 1.760607,0 3.193024,-1.432399 3.193024,-3.193001 v -3.33183 c 0,-1.760602 -1.432417,-3.1930196 -3.193024,-3.1930193 z M 14.296591,20.14219 c 0,0 -4.6094,-2.496735 -4.6094,-5.676708 0,-1.419234 1.150463,-2.569695 2.569689,-2.569695 0.83114,0 1.570026,0.394691 2.039711,1.006771 0.469713,-0.61208 1.208579,-1.006771 2.039751,-1.006771 1.419194,0 2.569689,1.150461 2.569689,2.569695 0,3.208843 -4.60944,5.676708 -4.60944,5.676708 z m 12.742238,-3.590402 c -0.0823,1.14174 -1.705736,1.450616 -1.935272,1.442079 l -1.167987,-0.04344 c 0.06535,-0.435654 0.07896,-2.160446 0.07896,-2.613938 L 24,11.115234 l 1.294865,0.04118 c 1.3179,0.04191 1.717219,1.139891 1.718658,1.369574 z"
       sodipodi:nodetypes="scssssccsssssccsssscsscssccscscssc"
       style="fill:url(#linearGradient841);fill-opacity:1;stroke-width:0.0694149" />
  </g>
  <g
     id="22-22-kteatime">
    <rect
       style="opacity:0.00100002"
       width="22"
       height="22"
       x="32"
       y="10"
       id="rect2" />
    <path
       id="kteatime-3-6"
       d="M 50.480723,16.46674 H 49.60569 c -0.19778,-0.746984 -0.879278,-1.299284 -1.687566,-1.299284 h -9.465893 c -0.962587,0 -1.745643,0.783078 -1.745643,1.745657 v 3.291261 c 0,2.489233 1.524271,4.628927 3.688387,5.535276 h -2.228901 c -0.839135,5.1e-5 -1.557703,-0.03483 -1.556669,0.575362 0.0015,0.560555 0.802427,0.401564 1.641522,0.403125 l 9.882239,0.01836 c 0.839115,0.002 1.706907,0.176167 1.696228,-0.481303 -0.0086,-0.526448 -0.78595,-0.515513 -1.625061,-0.515513 H 45.97416 C 47.280625,25.192747 48.354281,24.196835 49,22.945312 h 1.480723 c 1.173739,0 2.128681,-0.954933 2.128681,-2.128668 v -2.221207 c 0,-1.173735 -0.954942,-2.12868 -2.128681,-2.12868 z m -7.295559,6.941404 c 0,0 -3.072927,-1.664491 -3.072927,-3.784473 0,-0.946156 0.766972,-1.71313 1.713119,-1.71313 0.554094,0 1.046685,0.263127 1.359808,0.67118 0.313147,-0.408053 0.80572,-0.67118 1.359839,-0.67118 0.946126,0 1.713122,0.766974 1.713122,1.71313 0,2.139229 -3.072961,3.784473 -3.072961,3.784473 z m 8.49483,-2.393602 c -0.05489,0.76116 -1.137157,0.967077 -1.290181,0.961386 l -0.778661,-0.02896 c 0.04356,-0.290436 0.05266,-1.440297 0.05266,-1.742625 l -0.0097,-2.814171 0.863243,0.02745 c 0.878601,0.02794 1.144812,0.759927 1.145774,0.913049 z"
       sodipodi:nodetypes="scssssccsssssccsssscsscssccscscssc"
       style="fill:url(#linearGradient849);fill-opacity:1;stroke-width:0.0462767" />
  </g>
</svg>
