<?xml version="1.0" encoding="UTF-8" standalone="no"?>
<svg
   xmlns:dc="http://purl.org/dc/elements/1.1/"
   xmlns:cc="http://creativecommons.org/ns#"
   xmlns:rdf="http://www.w3.org/1999/02/22-rdf-syntax-ns#"
   xmlns:svg="http://www.w3.org/2000/svg"
   xmlns="http://www.w3.org/2000/svg"
   xmlns:sodipodi="http://sodipodi.sourceforge.net/DTD/sodipodi-0.dtd"
   xmlns:inkscape="http://www.inkscape.org/namespaces/inkscape"
   version="1.1"
   viewBox="0 0 22 22"
   id="svg12"
   sodipodi:docname="list.svg"
   inkscape:version="1.0.1 (3bc2e813f5, 2020-09-07)"
   width="22"
   height="22">
  <metadata
     id="metadata18">
    <rdf:RDF>
      <cc:Work
         rdf:about="">
        <dc:format>image/svg+xml</dc:format>
        <dc:type
           rdf:resource="http://purl.org/dc/dcmitype/StillImage" />
      </cc:Work>
    </rdf:RDF>
  </metadata>
  <defs
     id="defs16" />
  <sodipodi:namedview
     pagecolor="#ffffff"
     bordercolor="#666666"
     borderopacity="1"
     objecttolerance="10"
     gridtolerance="10"
     guidetolerance="10"
     inkscape:pageopacity="0"
     inkscape:pageshadow="2"
     inkscape:window-width="1920"
     inkscape:window-height="1007"
     id="namedview14"
     showgrid="false"
     inkscape:zoom="10.092342"
     inkscape:cx="36.214032"
     inkscape:cy="11.546782"
     inkscape:window-x="0"
     inkscape:window-y="0"
     inkscape:window-maximized="1"
     inkscape:current-layer="svg12"
     inkscape:document-rotation="0"
     inkscape:lockguides="false">
    <inkscape:grid
       type="xygrid"
       id="grid836"
       originx="0"
       originy="0" />
  </sodipodi:namedview>
  <g
     id="g896">
    <path
       style="opacity:0.00100002"
       d="M 0,0 H 22 V 22 H 0 Z"
       id="path2" />
    <g
       stroke="#000000"
       id="list-add"
       style="fill:none;fill-rule:evenodd;stroke-width:1"
       transform="matrix(0.24222692,0,0,0.24222692,-1.0912915,-1.2324595)">
      <path
         d="m 50.883651,48.591536 c 0,0.51798 0.424244,0.937892 0.937892,0.937892 h 17.569662 c 0.517984,0 0.937894,0.418925 0.937873,0.93565 v -0.103525 c 0,0.516749 -0.42424,0.935654 -0.937873,0.93568 l -17.569662,-5.4e-5 c -0.517979,0 -0.937892,0.424244 -0.937892,0.937892 v 17.569662 c 0,0.517984 -0.418927,0.937894 -0.935651,0.937873 h 0.103524 c -0.516746,0 -0.935651,-0.42424 -0.935678,-0.937873 l 5.3e-5,-17.569662 c 0,-0.517979 -0.424244,-0.937892 -0.937891,-0.937892 H 30.608337 c -0.517978,0 -0.937891,-0.418926 -0.937863,-0.93565 v 0.103524 c 0,-0.516747 0.424245,-0.935652 0.937863,-0.935679 l 17.569671,5.4e-5 c 0.51798,0 0.937891,-0.424245 0.937891,-0.937892 v -17.56967 c 0,-0.517978 0.418925,-0.937891 0.93565,-0.937863 h -0.103525 c 0.51675,0 0.935655,0.424245 0.935681,0.937863 z"
         id="path6"
         style="fill:#33daff;fill-opacity:1;stroke-width:0.625" />
    </g>
  </g>
  <g
     id="list-remove">
    <path
       style="opacity:0.00100002"
       d="M 22,0 H 44 V 22 H 22 Z"
       id="path7" />
    <path
       d="m 37.316392,10.479 -8.566784,1.23e-4 c -0.395158,0 -0.716608,0.252305 -0.716608,0.562427 0,0.310276 0.32145,0.56245 0.716608,0.56245 l 8.566784,-1.26e-4 c 0.395158,0 0.716608,-0.252302 0.716608,-0.562424 0,-0.310147 -0.32145,-0.56245 -0.716608,-0.56245 z m 0,1.008628 -8.566784,1.22e-4 c -0.313458,0 -0.568343,-0.200182 -0.568343,-0.446086 0,-0.245904 0.254885,-0.446051 0.568343,-0.446051 l 8.566784,-1.26e-4 c 0.313302,0 0.568343,0.200163 0.568343,0.446063 0,0.2459 -0.255041,0.446078 -0.568343,0.446078 z"
       id="path2-3"
       style="fill:#00d0ff;fill-opacity:1;stroke-width:0.13135" />
  </g>
</svg>
