<?xml version="1.0" encoding="UTF-8" standalone="no"?>
<svg
   xmlns:dc="http://purl.org/dc/elements/1.1/"
   xmlns:cc="http://creativecommons.org/ns#"
   xmlns:rdf="http://www.w3.org/1999/02/22-rdf-syntax-ns#"
   xmlns:svg="http://www.w3.org/2000/svg"
   xmlns="http://www.w3.org/2000/svg"
   xmlns:sodipodi="http://sodipodi.sourceforge.net/DTD/sodipodi-0.dtd"
   xmlns:inkscape="http://www.inkscape.org/namespaces/inkscape"
   width="32"
   height="32"
   version="1.1"
   id="svg22"
   sodipodi:docname="mail.svg"
   inkscape:version="1.0.2 (e86c870879, 2021-01-15)">
  <metadata
     id="metadata28">
    <rdf:RDF>
      <cc:Work
         rdf:about="">
        <dc:format>image/svg+xml</dc:format>
        <dc:type
           rdf:resource="http://purl.org/dc/dcmitype/StillImage" />
      </cc:Work>
    </rdf:RDF>
  </metadata>
  <defs
     id="defs26" />
  <sodipodi:namedview
     pagecolor="#ffffff"
     bordercolor="#666666"
     borderopacity="1"
     objecttolerance="10"
     gridtolerance="10"
     guidetolerance="10"
     inkscape:pageopacity="0"
     inkscape:pageshadow="2"
     inkscape:window-width="1920"
     inkscape:window-height="1007"
     id="namedview24"
     showgrid="false"
     inkscape:zoom="6.9384853"
     inkscape:cx="31.62637"
     inkscape:cy="-2.214564"
     inkscape:window-x="0"
     inkscape:window-y="0"
     inkscape:window-maximized="1"
     inkscape:current-layer="svg22"
     inkscape:document-rotation="0">
    <inkscape:grid
       type="xygrid"
       id="grid842"
       originx="0"
       originy="0" />
  </sodipodi:namedview>
  <g
     id="mail-unread">
    <rect
       style="opacity:0.00100002"
       width="32"
       height="32"
       x="0"
       y="0"
       id="rect12" />
    <path
       inkscape:connector-curvature="0"
       id="path4252"
       style="font-style:normal;font-variant:normal;font-weight:normal;font-stretch:normal;font-size:18.5263px;line-height:125%;font-family:'Product Sans';-inkscape-font-specification:'Product Sans';letter-spacing:0px;word-spacing:0px;fill:#d3dae3;fill-opacity:1;stroke:none;stroke-width:0.750006;stroke-linecap:butt;stroke-linejoin:miter;stroke-miterlimit:4;stroke-dasharray:none;stroke-opacity:0.85"
       d="m 16.078448,4 q 5.053247,0 8.504374,3.512877 3.450971,3.513108 3.450971,8.487022 0,2.798088 -1.201626,4.632197 -1.170883,1.834255 -3.420249,1.834255 -2.311115,0 -3.451107,-2.26944 -1.509895,2.26944 -4.313836,2.26944 -2.526766,0 -4.252126,-1.772002 -1.725645,-1.803177 -1.725645,-4.569897 0,-2.735763 1.725645,-4.539086 1.72536,-1.802981 4.128839,-1.802981 2.372663,0 3.944136,1.834269 h 0.123608 v -1.398949 h 2.218534 v 8.113952 q 0,0.808262 0.431331,1.461014 0.462146,0.652774 1.386706,0.652774 2.18768,0 2.18768,-4.445546 0,-4.103548 -2.834814,-6.932574 -2.83488,-2.828963 -6.902126,-2.828963 -4.067269,0 -6.902272,2.828963 -2.834672,2.829026 -2.834672,6.932574 0,4.103775 2.834672,6.932775 2.835003,2.828832 6.902272,2.828832 2.187659,0 3.913127,-0.870365 l 0.862878,2.113954 Q 18.697736,28 16.078743,28 10.963833,28 7.4818033,24.518057 4,21.00518 4,15.999899 4,11.025985 7.4818033,7.512877 10.994488,4 16.078743,4 Z m -2.865695,15.015574 q 1.109338,1.0881 2.649931,1.0881 1.540641,0 2.619127,-1.0881 1.109314,-1.088169 1.109314,-2.891122 0,-1.803324 -1.109314,-2.891262 -1.078486,-1.088101 -2.619127,-1.088101 -1.540593,0 -2.649931,1.088101 -1.078467,1.087938 -1.078467,2.891262 0,1.802953 1.078467,2.891122 z" />
  </g>
  <g
     id="22-22-mail-unread">
    <g
       id="g921">
      <rect
         style="opacity:0.00100002"
         width="22"
         height="22"
         x="32"
         y="10"
         id="rect2" />
      <path
         inkscape:connector-curvature="0"
         id="path4252-3"
         style="font-style:normal;font-variant:normal;font-weight:normal;font-stretch:normal;font-size:18.5263px;line-height:125%;font-family:'Product Sans';-inkscape-font-specification:'Product Sans';letter-spacing:0px;word-spacing:0px;fill:#d3dae3;fill-opacity:1;stroke:none;stroke-width:0.500006;stroke-linecap:butt;stroke-linejoin:miter;stroke-miterlimit:4;stroke-dasharray:none;stroke-opacity:0.85"
         d="m 43.052299,13 q 3.368838,0 5.669584,2.341916 2.300648,2.342068 2.300648,5.658009 0,1.8654 -0.801082,3.088138 -0.780589,1.222838 -2.280169,1.222838 -1.540742,0 -2.300735,-1.51296 -1.006595,1.51296 -2.87589,1.51296 -1.684515,0 -2.834756,-1.181335 -1.150431,-1.202131 -1.150431,-3.046611 0,-1.82384 1.150431,-3.026047 1.150241,-1.201992 2.752564,-1.201992 1.581781,0 2.629417,1.222856 h 0.08241 V 17.14514 h 1.479022 v 5.409295 q 0,0.538844 0.287556,0.974013 0.308097,0.435179 0.924471,0.435179 1.458449,0 1.458449,-2.963702 0,-2.73568 -1.889877,-4.621711 -1.88992,-1.885969 -4.601411,-1.885969 -2.711515,0 -4.601521,1.885969 -1.889783,1.886031 -1.889783,4.621711 0,2.735854 1.889783,4.621859 1.890006,1.885887 4.601521,1.885887 1.458437,0 2.608747,-0.580245 l 0.575257,1.409305 Q 44.798476,29 43.0525,29 39.642553,29 37.321196,26.678704 35,24.336785 35,20.999925 35,17.683984 37.321205,15.341916 39.662992,13 43.0525,13 Z m -1.910455,10.01038 q 0.739551,0.725399 1.766611,0.725399 1.027098,0 1.746087,-0.725399 0.739545,-0.725444 0.739545,-1.927425 0,-1.202205 -0.739545,-1.927499 -0.718989,-0.7254 -1.746087,-0.7254 -1.02706,0 -1.766611,0.7254 -0.718987,0.725294 -0.718987,1.927499 0,1.201981 0.718987,1.927425 z" />
    </g>
  </g>
  <g
     id="mail-unread-new">
    <rect
       style="opacity:0.00100002"
       width="32"
       height="32"
       x="0"
       y="-32"
       id="rect17" />
    <path
       inkscape:connector-curvature="0"
       id="path4252-36"
       style="font-style:normal;font-variant:normal;font-weight:normal;font-stretch:normal;font-size:18.5263px;line-height:125%;font-family:'Product Sans';-inkscape-font-specification:'Product Sans';letter-spacing:0px;word-spacing:0px;fill:#00cdff;fill-opacity:1;stroke:none;stroke-width:0.750006;stroke-linecap:butt;stroke-linejoin:miter;stroke-miterlimit:4;stroke-dasharray:none;stroke-opacity:0.85"
       d="m 16.078448,-28 q 5.053247,0 8.504377,3.512877 3.450971,3.513107 3.450971,8.487023 0,2.798084 -1.201629,4.632194 -1.170889,1.8342611 -3.420249,1.8342611 -2.311121,0 -3.451113,-2.2694441 -1.509889,2.2694441 -4.31383,2.2694441 -2.526766,0 -4.252126,-1.7720051 -1.725642,-1.803176 -1.725642,-4.569896 0,-2.735785 1.725642,-4.539086 1.72536,-1.802993 4.128833,-1.802993 2.372663,0 3.944133,1.834278 h 0.123614 v -1.398949 h 2.218534 v 8.11395 q 0,0.808265 0.431328,1.46102 0.462152,0.652772 1.386706,0.652772 2.187689,0 2.187689,-4.445546 0,-4.103556 -2.834817,-6.932576 -2.83488,-2.828951 -6.902126,-2.828951 -4.067269,0 -6.902269,2.828951 -2.834675,2.82902 -2.834675,6.932576 0,4.103776 2.834675,6.9327805 2.835,2.8288224 6.902269,2.8288224 2.187653,0 3.91313,-0.87036 l 0.862875,2.113945 Q 18.697738,-4 16.078743,-4 10.963833,-4 7.481803,-7.481947 4,-10.994821 4,-16.0001 4,-20.974016 7.481803,-24.487123 10.994491,-28 16.078743,-28 Z m -2.865701,15.015574 q 1.109347,1.088102 2.649937,1.088102 1.540638,0 2.619127,-1.088102 1.109314,-1.088169 1.109314,-2.89112 0,-1.803324 -1.109314,-2.891262 -1.078489,-1.088104 -2.619127,-1.088104 -1.54059,0 -2.649937,1.088104 -1.078461,1.087938 -1.078461,2.891262 0,1.802951 1.078461,2.89112 z" />
  </g>
  <g
     id="22-22-mail-unread-new">
    <rect
       style="opacity:0.00100002"
       width="22"
       height="22"
       x="32"
       y="-22"
       id="rect7" />
    <path
       inkscape:connector-curvature="0"
       id="path4252-3-7"
       style="font-style:normal;font-variant:normal;font-weight:normal;font-stretch:normal;font-size:18.5263px;line-height:125%;font-family:'Product Sans';-inkscape-font-specification:'Product Sans';letter-spacing:0px;word-spacing:0px;fill:#00cdff;fill-opacity:1;stroke:none;stroke-width:0.500006;stroke-linecap:butt;stroke-linejoin:miter;stroke-miterlimit:4;stroke-dasharray:none;stroke-opacity:0.85"
       d="m 43.052285,-19 q 3.368838,0 5.669586,2.341916 2.300645,2.342068 2.300645,5.658013 0,1.8653966 -0.801081,3.0881367 -0.780593,1.2228372 -2.280169,1.2228372 -1.540746,0 -2.300739,-1.5129601 -1.006591,1.5129601 -2.875885,1.5129601 -1.684516,0 -2.834757,-1.1813404 -1.150427,-1.2021229 -1.150427,-3.0466105 0,-1.823841 1.150427,-3.02604 1.150241,-1.201995 2.75256,-1.201995 1.581779,0 2.62942,1.222855 h 0.08241 v -0.932632 h 1.479032 v 5.4092987 q 0,0.5388399 0.287552,0.9740059 0.308101,0.4351819 0.924471,0.4351819 1.458457,0 1.458457,-2.9636975 0,-2.73568 -1.889881,-4.621715 -1.88992,-1.885965 -4.601411,-1.885965 -2.711515,0 -4.601517,1.885965 -1.889791,1.886035 -1.889791,4.621715 0,2.7358476 1.889791,4.6218586 1.890002,1.8858814 4.601517,1.8858814 1.458433,0 2.608747,-0.58024 l 0.575262,1.4092971 Q 44.798489,-3 43.0525,-3 39.642553,-3 37.321209,-5.3212982 35,-7.6632173 35,-11.000071 35,-14.316016 37.321209,-16.658084 39.662996,-19 43.0525,-19 Z m -1.910461,10.0103784 q 0.739561,0.7253982 1.766616,0.7253982 1.027099,0 1.746088,-0.7253982 0.739545,-0.7254457 0.739545,-1.9274254 0,-1.202199 -0.739545,-1.927493 -0.718989,-0.725404 -1.746088,-0.725404 -1.027055,0 -1.766616,0.725404 -0.718982,0.725294 -0.718982,1.927493 0,1.2019797 0.718982,1.9274254 z" />
  </g>
</svg>
