<?xml version="1.0" encoding="UTF-8" standalone="no"?>
<svg
   xmlns:dc="http://purl.org/dc/elements/1.1/"
   xmlns:cc="http://creativecommons.org/ns#"
   xmlns:rdf="http://www.w3.org/1999/02/22-rdf-syntax-ns#"
   xmlns:svg="http://www.w3.org/2000/svg"
   xmlns="http://www.w3.org/2000/svg"
   xmlns:xlink="http://www.w3.org/1999/xlink"
   xmlns:sodipodi="http://sodipodi.sourceforge.net/DTD/sodipodi-0.dtd"
   xmlns:inkscape="http://www.inkscape.org/namespaces/inkscape"
   inkscape:version="1.0.1 (3bc2e813f5, 2020-09-07)"
   sodipodi:docname="view.svg"
   id="svg873"
   version="1.1"
   height="32"
   width="32">
  <metadata
     id="metadata879">
    <rdf:RDF>
      <cc:Work
         rdf:about="">
        <dc:format>image/svg+xml</dc:format>
        <dc:type
           rdf:resource="http://purl.org/dc/dcmitype/StillImage" />
      </cc:Work>
    </rdf:RDF>
  </metadata>
  <defs
     id="defs877">
    <linearGradient
       inkscape:collect="always"
       id="linearGradient859">
      <stop
         style="stop-color:#d45500;stop-opacity:1"
         offset="0"
         id="stop855" />
      <stop
         style="stop-color:#ffcc00;stop-opacity:1"
         offset="1"
         id="stop857" />
    </linearGradient>
    <linearGradient
       id="_lgradient_0"
       x1="0"
       y1="0.5"
       x2="1"
       y2="0.5"
       gradientTransform="matrix(27.999994,0,0,27.999998,1.9766191,1.9139856)"
       gradientUnits="userSpaceOnUse">
      <stop
         offset="0%"
         stop-opacity="1"
         style="stop-color:rgb(105,227,255)"
         id="stop33" />
      <stop
         offset="100%"
         stop-opacity="1"
         style="stop-color:rgb(0,255,194)"
         id="stop35" />
    </linearGradient>
    <linearGradient
       y2="0.5"
       x2="1"
       y1="0.5"
       x1="0"
       gradientTransform="matrix(27.999994,0,0,27.999998,1.9766191,1.9139856)"
       gradientUnits="userSpaceOnUse"
       id="linearGradient888"
       xlink:href="#_lgradient_0"
       inkscape:collect="always" />
    <linearGradient
       gradientUnits="userSpaceOnUse"
       y2="499.98923"
       x2="990.013"
       y1="499.98923"
       x1="9.9975004"
       id="linearGradient920"
       xlink:href="#_lgradient_0-3"
       inkscape:collect="always" />
    <linearGradient
       id="_lgradient_0-3"
       x1="0"
       y1="0.5"
       x2="1"
       y2="0.5"
       gradientTransform="matrix(27.999994,0,0,27.999998,1.9766191,1.9139856)"
       gradientUnits="userSpaceOnUse">
      <stop
         offset="0%"
         stop-opacity="1"
         style="stop-color:#ff8fc3;stop-opacity:1"
         id="stop33-6" />
      <stop
         offset="100%"
         stop-opacity="1"
         style="stop-color:rgb(0,255,194)"
         id="stop35-7" />
    </linearGradient>
    <linearGradient
       inkscape:collect="always"
       xlink:href="#_lgradient_0-3"
       id="linearGradient870"
       gradientUnits="userSpaceOnUse"
       x1="9.9975004"
       y1="499.98923"
       x2="990.013"
       y2="499.98923" />
    <linearGradient
       inkscape:collect="always"
       xlink:href="#linearGradient859"
       id="linearGradient861"
       x1="166.2117"
       y1="131.39098"
       x2="870.79114"
       y2="858.25031"
       gradientUnits="userSpaceOnUse"
       gradientTransform="matrix(0.02653061,0,0,0.02653061,2.6921589,2.88836)" />
    <linearGradient
       inkscape:collect="always"
       xlink:href="#linearGradient859"
       id="linearGradient860"
       x1="13.065155"
       y1="14.764828"
       x2="23.597383"
       y2="14.764828"
       gradientUnits="userSpaceOnUse" />
  </defs>
  <sodipodi:namedview
     inkscape:current-layer="svg873"
     inkscape:window-maximized="1"
     inkscape:window-y="0"
     inkscape:window-x="0"
     inkscape:cy="27.749335"
     inkscape:cx="49.909008"
     inkscape:zoom="8.4800067"
     showgrid="false"
     id="namedview875"
     inkscape:window-height="1009"
     inkscape:window-width="1920"
     inkscape:pageshadow="2"
     inkscape:pageopacity="0"
     guidetolerance="10"
     gridtolerance="10"
     objecttolerance="10"
     borderopacity="1"
     inkscape:document-rotation="0"
     bordercolor="#666666"
     pagecolor="#ffffff"
     inkscape:lockguides="true" />
  <g
     transform="translate(-250.00021,54.000004)"
     id="view-refresh">
    <path
       id="path836"
       style="opacity:0.00100002"
       d="m 282.00021,-38.000004 h 16 v 16 h -16 z" />
    <g
       id="g841"
       transform="translate(281.97246,-37.000109)">
      <g
         transform="translate(-485.03396,-41.017475)"
         id="layer12-0">
        <path
           id="path838"
           style="fill:#d3dae3;fill-opacity:1"
           d="m 499.06185,49.01758 c 0,3.31371 -2.68629,6 -6,6 -3.28006,0 -5.94034,-2.63316 -5.99414,-5.90039 a 1,1 0 0 1 -0.006,-0.09961 1,1 0 0 1 1,-1 1,1 0 0 1 1,1 c 0,2.20914 1.79086,4 4,4 2.20914,0 4,-1.79086 4,-4 0,-2.20914 -1.79086,-4 -4,-4 v 2 l -4,-3 4,-3 v 2 c 3.31371,0 6,2.68629 6,6 z" />
      </g>
    </g>
  </g>
  <g
     style="clip-rule:evenodd;fill:url(#linearGradient920);fill-opacity:1;fill-rule:evenodd;stroke-linejoin:round;stroke-miterlimit:1.41420996"
     id="g10"
     transform="matrix(0.02856847,0,0,0.02856847,-24.124545,-5.0891493)">
    <g
       style="fill:url(#linearGradient870);fill-opacity:1"
       transform="matrix(0.1,0,0,-0.1,0,511)"
       id="g8" />
  </g>
  <g
     id="view-history">
    <rect
       ry="0.91472864"
       y="0"
       x="0"
       height="32"
       width="32"
       id="rect817-5"
       style="clip-rule:evenodd;fill:#ffff96;fill-opacity:0;fill-rule:evenodd;stroke-width:1.04154;stroke-linejoin:round;stroke-miterlimit:1.41421;stroke-dasharray:none" />
    <path
       inkscape:connector-curvature="0"
       style="clip-rule:evenodd;opacity:0;isolation:isolate;fill:url(#linearGradient888);fill-rule:evenodd;stroke-width:1.07692;stroke-linejoin:round;stroke-miterlimit:1.41421"
       d="m 16.58508,3.1578315 0.158302,0.00969 c 3.250158,0.1949228 6.306467,1.6240001 8.54,3.9910766 2.234618,2.3724617 3.476309,5.5063079 3.476309,8.7618459 0,3.389077 -1.346151,6.637076 -3.74446,9.034307 -2.397231,2.39723 -5.648462,3.742308 -9.038611,3.742308 -3.390158,0 -6.6413814,-1.345078 -9.0386167,-3.742308 -2.3983075,-2.397231 -3.744461,-5.64523 -3.744461,-9.034307 0,-2.263692 0.6030766,-4.490769 1.7478459,-6.4432304 C 6.0850803,7.5172158 7.7284647,5.8996776 9.7013816,4.786139 v 0 C 9.9932396,4.6213698 10.09662,4.2509089 9.9318486,3.9579856 v 0 C 9.7681596,3.6661389 9.3966196,3.5627543 9.1047746,3.7275235 v 0 C 6.9433883,4.9498315 5.1416955,6.7202928 3.8881574,8.8622926 2.6400031,11.004293 1.9766192,13.438138 1.9766192,15.920446 c 0,3.711076 1.4732301,7.270307 4.1030759,9.892614 2.6233854,2.62877 6.1836869,4.100923 9.8969249,4.100923 3.713229,0 7.27354,-1.472153 9.89692,-4.100923 2.629842,-2.622307 4.10308,-6.181538 4.10308,-9.892614 0,-3.565692 -1.363389,-6.9978454 -3.804771,-9.5953839 C 23.72508,3.7275235 20.378,2.1638314 16.81662,1.9506006 l -0.23154,-0.014 v -0.010769 h -0.17446 l -0.20246,-0.011848 -0.001,0.013997 c -0.469539,0.024771 -0.838921,0.2875384 -0.838921,0.6063078 v 0 13.3861536 c 0,0.670923 0.544921,1.216923 1.216921,1.216923 h 6.696308 v 0 c 0.336,0 0.60846,-0.273539 0.60846,-0.608462 v 0 c 0,-0.336 -0.27246,-0.608461 -0.60846,-0.608461 v 0 h -6.087847 c -0.336,0 -0.608461,-0.273539 -0.608461,-0.608462 z"
       id="path38" />
    <path
       d="m 15.957464,29.153664 c -2.517755,0 -4.958571,-0.71898 -7.0624485,-2.082653 -0.305102,-0.196326 -0.3899999,-0.602245 -0.1936734,-0.907347 0.1963265,-0.302449 0.6022448,-0.39 0.9073468,-0.193673 1.8889791,1.225714 4.0830611,1.873061 6.3487751,1.873061 6.444285,0 11.689387,-5.242449 11.689387,-11.689387 0,-6.4442852 -5.242449,-11.6893868 -11.689387,-11.6893868 -6.4442853,0 -11.6893869,5.2451016 -11.6893869,11.6893868 0,2.854694 1.0399999,5.603265 2.9289794,7.738979 0.2387755,0.270612 0.2148979,0.68449 -0.055714,0.925918 -0.2732653,0.238776 -0.6871428,0.214898 -0.9259183,-0.05837 -2.1012243,-2.37449 -3.2579589,-5.433469 -3.2579589,-8.60653 0,-7.1685708 5.8314281,-12.9999989 12.9999987,-12.9999989 7.168571,0 12.999999,5.8314281 12.999999,12.9999989 0,7.168571 -5.831428,12.999999 -12.999999,12.999999 z"
       id="path6"
       style="fill:url(#linearGradient861);fill-opacity:1;stroke-width:0.0265306" />
    <path
       d="m 14.946049,9.4983277 c 1.038274,0.0014 1.532464,0.8426183 1.533705,1.8808933 v 5.237871 h 5.237505 c 2.506832,0.001 2.506832,3.415257 0,3.414236 h -7.523565 c -0.623277,0 -1.128539,-0.505263 -1.128539,-1.128536 v -7.523571 c 0.0014,-1.038275 0.842617,-1.8796523 1.880894,-1.8808933 z m 6.77121,9.7806433 c 1.503924,-7.91e-4 1.503924,-1.910892 0,-1.910101 h -5.613391 c -0.207764,0 -0.376761,-0.254942 -0.376761,-0.462699 v -5.52695 c -8.41e-4,-1.5038743 -1.910431,-1.5038743 -1.909598,0 v 7.523571 c 0,0.207758 0.168421,0.376179 0.376185,0.376179 z"
       id="path2"
       style="fill:url(#linearGradient860);fill-opacity:1.0;stroke-width:0.376184"
       sodipodi:nodetypes="cccccssccccssccccc" />
  </g>
</svg>
