<?xml version="1.0" encoding="UTF-8" standalone="no"?>
<svg
   xmlns:dc="http://purl.org/dc/elements/1.1/"
   xmlns:cc="http://creativecommons.org/ns#"
   xmlns:rdf="http://www.w3.org/1999/02/22-rdf-syntax-ns#"
   xmlns:svg="http://www.w3.org/2000/svg"
   xmlns="http://www.w3.org/2000/svg"
   xmlns:sodipodi="http://sodipodi.sourceforge.net/DTD/sodipodi-0.dtd"
   xmlns:inkscape="http://www.inkscape.org/namespaces/inkscape"
   viewBox="0 0 22 22"
   id="svg"
   version="1.1"
   inkscape:version="1.0.1 (3bc2e813f5, 2020-09-07)"
   width="100%"
   height="100%"
   sodipodi:docname="wallet.svg">
  <defs
     id="defs81">
    <style
       id="current-color-scheme"
       type="text/css" />
  </defs>
  <metadata
     id="metadata34">
    <rdf:RDF>
      <cc:Work
         rdf:about="">
        <dc:format>image/svg+xml</dc:format>
        <dc:type
           rdf:resource="http://purl.org/dc/dcmitype/StillImage" />
        <dc:title />
      </cc:Work>
    </rdf:RDF>
  </metadata>
  <sodipodi:namedview
     pagecolor="#ffffff"
     bordercolor="#070707"
     borderopacity="1"
     objecttolerance="10"
     gridtolerance="10"
     guidetolerance="10"
     inkscape:pageopacity="0.08627451"
     inkscape:pageshadow="2"
     inkscape:window-width="1920"
     inkscape:window-height="1011"
     id="namedview32"
     showgrid="false"
     inkscape:zoom="3.9999998"
     inkscape:cx="-34.461912"
     inkscape:cy="-1.2075143"
     inkscape:window-x="0"
     inkscape:window-y="0"
     inkscape:window-maximized="1"
     inkscape:current-layer="svg"
     borderlayer="true"
     showguides="false"
     inkscape:guide-bbox="true"
     inkscape:snap-bbox="true"
     inkscape:snap-global="true"
     inkscape:document-rotation="0">
    <inkscape:grid
       type="xygrid"
       id="grid3046"
       empspacing="4"
       visible="true"
       enabled="true"
       snapvisiblegridlinesonly="true" />
  </sodipodi:namedview>
  <path
     style="fill:#d3dae3;fill-opacity:1;stroke:none"
     d="m -25,23 0,1 0,12 1,0 17,0 0,-1 0,-11 0,-1 -1,0 -16,0 -1,0 z m 1,1 16,0 0,4 -8,0 0,4 8,0 0,3 -16,0 0,-11 z m 1,1 0,2 14,0 0,-2 -14,0 z m 9,4 c 0.552285,0 1,0.447715 1,1 0,0.552285 -0.447715,1 -1,1 -0.552285,0 -1,-0.447715 -1,-1 0,-0.552285 0.447715,-1 1,-1 z"
     id="rect2989"
     inkscape:connector-curvature="0" />
  <g
     id="wallet-open">
    <path
       id="rect3803"
       d="M 7.28125,3.375 C 5.4697938,3.37115 4.00406,4.8619043 4,6.6875 4.004025,8.5174362 5.4697938,9.9972 7.28125,10 8.4937882,9.998075 9.5596816,9.3353681 10.125,8.34375 h 1.3125 l 1.0625,-1.0625 0.8125,0.8125 0.75,-0.78125 0.8125,0.8125 0.78125,-0.8125 0.8125,0.8125 1.375,-1.375 c 0.19838,-0.2067799 0.203543,-0.3567017 0,-0.5625 l -1.125,-1.15625 H 10.125 C 9.5606616,4.0369725 8.4971482,3.37234 7.28125,3.375 Z M 5.84375,5.78125 C 6.3198899,5.7788 6.71511,6.1993218 6.71875,6.6875 6.71525,7.1691 6.3200299,7.55788 5.84375,7.5625 5.3596318,7.55795 4.96427,7.1691 4.96875,6.6875 4.9642,6.1993218 5.3596318,5.77901 5.84375,5.78125 Z M 1.5,12 v 7 h 19 v -7 z m 1,1 h 17 v 5 H 2.5 Z M 5,14 C 4.1715729,14 3.5,14.671573 3.5,15.5 3.5,16.328427 4.1715729,17 5,17 5.8284271,17 6.5,16.328427 6.5,15.5 6.5,14.671573 5.8284271,14 5,14 Z m 4,0 C 8.1715729,14 7.5,14.671573 7.5,15.5 7.5,16.328427 8.1715729,17 9,17 9.828427,17 10.5,16.328427 10.5,15.5 10.5,14.671573 9.828427,14 9,14 Z m 4,0 c -0.828427,0 -1.5,0.671573 -1.5,1.5 0,0.828427 0.671573,1.5 1.5,1.5 0.828427,0 1.5,-0.671573 1.5,-1.5 C 14.5,14.671573 13.828427,14 13,14 Z m 4,0 c -0.828427,0 -1.5,0.671573 -1.5,1.5 0,0.828427 0.671573,1.5 1.5,1.5 0.828427,0 1.5,-0.671573 1.5,-1.5 C 18.5,14.671573 17.828427,14 17,14 Z"
       style="fill:#d3dae3;fill-opacity:1;stroke:none"
       inkscape:connector-curvature="0" />
    <rect
       y="0"
       x="0"
       height="22"
       width="22"
       id="rect3827"
       style="fill:#7b7c7e;fill-opacity:0;stroke:none" />
  </g>
  <path
     style="fill:#d3dae3;fill-opacity:1;stroke:none"
     d="m 1.5,32 0,7 19,0 0,-7 -19,0 z m 1,1 17,0 0,5 -17,0 0,-5 z M 5,34 C 4.1715729,34 3.5,34.671573 3.5,35.5 3.5,36.328427 4.1715729,37 5,37 5.8284271,37 6.5,36.328427 6.5,35.5 6.5,34.671573 5.8284271,34 5,34 z m 4,0 C 8.1715729,34 7.5,34.671573 7.5,35.5 7.5,36.328427 8.1715729,37 9,37 9.828427,37 10.5,36.328427 10.5,35.5 10.5,34.671573 9.828427,34 9,34 z m 4,0 c -0.828427,0 -1.5,0.671573 -1.5,1.5 0,0.828427 0.671573,1.5 1.5,1.5 0.828427,0 1.5,-0.671573 1.5,-1.5 C 14.5,34.671573 13.828427,34 13,34 z m 4,0 c -0.828427,0 -1.5,0.671573 -1.5,1.5 0,0.828427 0.671573,1.5 1.5,1.5 0.828427,0 1.5,-0.671573 1.5,-1.5 C 18.5,34.671573 17.828427,34 17,34 z"
     id="path3854"
     inkscape:connector-curvature="0" />
  <g
     id="wallet-closed"
     transform="translate(25.5)">
    <path
       style="fill:#1ad2ff;fill-opacity:1;stroke:none"
       d="m 1.5,12 v 7 h 19 v -7 z m 1,1 h 17 v 5 H 2.5 Z M 5,14 C 4.1715729,14 3.5,14.671573 3.5,15.5 3.5,16.328427 4.1715729,17 5,17 5.8284271,17 6.5,16.328427 6.5,15.5 6.5,14.671573 5.8284271,14 5,14 Z m 4,0 C 8.1715729,14 7.5,14.671573 7.5,15.5 7.5,16.328427 8.1715729,17 9,17 9.828427,17 10.5,16.328427 10.5,15.5 10.5,14.671573 9.828427,14 9,14 Z m 4,0 c -0.828427,0 -1.5,0.671573 -1.5,1.5 0,0.828427 0.671573,1.5 1.5,1.5 0.828427,0 1.5,-0.671573 1.5,-1.5 C 14.5,14.671573 13.828427,14 13,14 Z m 4,0 c -0.828427,0 -1.5,0.671573 -1.5,1.5 0,0.828427 0.671573,1.5 1.5,1.5 0.828427,0 1.5,-0.671573 1.5,-1.5 C 18.5,14.671573 17.828427,14 17,14 Z"
       id="path3824"
       inkscape:connector-curvature="0" />
    <path
       sodipodi:nodetypes="ccccccccccccccccccccccccccccc"
       inkscape:connector-curvature="0"
       id="object-unavailable"
       d="m 8.34375,1.96875 -0.25,0.25 -0.6875,0.6875 -0.25,0.25 0.25,0.25 2.40625,2.40625 -2.40625,2.40625 -0.25,0.25 0.25,0.25 0.6875,0.6875 0.25,0.25 0.25,-0.25 L 11,7 l 2.40625,2.40625 0.25,0.25 0.25,-0.25 0.6875,-0.6875 0.25,-0.25 -0.25,-0.25 -2.40625,-2.40625 2.40625,-2.40625 0.25,-0.25 -0.25,-0.25 -0.6875,-0.6875 -0.25,-0.25 -0.25,0.25 L 11,4.625 8.59375,2.21875 Z"
       style="color:#000000;font-style:normal;font-variant:normal;font-weight:normal;font-stretch:normal;font-size:medium;line-height:normal;font-family:Sans;-inkscape-font-specification:Sans;text-indent:0;text-align:start;text-decoration:none;text-decoration-line:none;letter-spacing:normal;word-spacing:normal;text-transform:none;writing-mode:lr-tb;direction:ltr;baseline-shift:baseline;text-anchor:start;display:inline;overflow:visible;visibility:visible;fill:#ff2a7f;fill-opacity:1;fill-rule:nonzero;stroke:none;stroke-width:0.7;marker:none;enable-background:accumulate" />
    <rect
       y="0"
       x="0"
       height="22"
       width="22"
       id="rect3856"
       style="fill:#7b7c7e;fill-opacity:0;stroke:none" />
  </g>
</svg>
