<?xml version="1.0" encoding="UTF-8" standalone="no"?>
<svg
   xmlns:dc="http://purl.org/dc/elements/1.1/"
   xmlns:cc="http://creativecommons.org/ns#"
   xmlns:rdf="http://www.w3.org/1999/02/22-rdf-syntax-ns#"
   xmlns:svg="http://www.w3.org/2000/svg"
   xmlns="http://www.w3.org/2000/svg"
   xmlns:xlink="http://www.w3.org/1999/xlink"
   xmlns:sodipodi="http://sodipodi.sourceforge.net/DTD/sodipodi-0.dtd"
   xmlns:inkscape="http://www.inkscape.org/namespaces/inkscape"
   inkscape:version="1.0.1 (3bc2e813f5, 2020-09-07)"
   sodipodi:docname="system-switch-user.svg"
   id="svg5"
   version="1.1"
   viewBox="0 0 32 32">
  <metadata
     id="metadata9">
    <rdf:RDF>
      <cc:Work
         rdf:about="">
        <dc:format>image/svg+xml</dc:format>
        <dc:type
           rdf:resource="http://purl.org/dc/dcmitype/StillImage" />
      </cc:Work>
    </rdf:RDF>
  </metadata>
  <sodipodi:namedview
     inkscape:document-rotation="0"
     inkscape:current-layer="svg5"
     inkscape:window-maximized="1"
     inkscape:window-y="0"
     inkscape:window-x="0"
     inkscape:cy="9.7788792"
     inkscape:cx="-1.299874"
     inkscape:zoom="14.182499"
     showgrid="false"
     id="namedview7"
     inkscape:window-height="1007"
     inkscape:window-width="1920"
     inkscape:pageshadow="2"
     inkscape:pageopacity="0"
     guidetolerance="10"
     gridtolerance="10"
     objecttolerance="10"
     borderopacity="1"
     bordercolor="#666666"
     pagecolor="#ffffff" />
  <defs
     id="defs3051">
    <linearGradient
       inkscape:collect="always"
       id="linearGradient844">
      <stop
         style="stop-color:#dd55ff;stop-opacity:1"
         offset="0"
         id="stop840" />
      <stop
         style="stop-color:#00ccff;stop-opacity:1"
         offset="1"
         id="stop842" />
    </linearGradient>
    <style
       id="current-color-scheme"
       type="text/css">
      .ColorScheme-Text {
        color:#eff0f1;
      }
      </style>
    <linearGradient
       inkscape:collect="always"
       xlink:href="#linearGradient844"
       id="linearGradient1226"
       x1="112.03254"
       y1="16.199593"
       x2="118.15493"
       y2="16.199593"
       gradientUnits="userSpaceOnUse"
       gradientTransform="matrix(0.92307664,0,0,0.92307664,-85.408799,1.2847238)" />
    <linearGradient
       inkscape:collect="always"
       xlink:href="#linearGradient844"
       id="linearGradient1218"
       x1="101.832"
       y1="16.199799"
       x2="107.95447"
       y2="16.199799"
       gradientUnits="userSpaceOnUse"
       gradientTransform="matrix(0.92307664,0,0,0.92307664,-85.408799,1.2847238)" />
    <linearGradient
       inkscape:collect="always"
       xlink:href="#linearGradient844"
       id="linearGradient1210"
       x1="97.099998"
       y1="16.200001"
       x2="123.1"
       y2="16.200001"
       gradientUnits="userSpaceOnUse"
       gradientTransform="matrix(0.92307664,0,0,0.92307664,-85.408799,1.2847238)" />
  </defs>
  <g
     id="g883">
    <path
       d="m 23.657291,16.238576 a 0.5012998,0.5012998 0 0 1 -0.147143,0.355663 l -4.001852,4.001847 A 0.88040204,0.88040204 0 0 1 18.263219,19.35101 l 3.112687,-3.112434 -3.112687,-3.112436 a 0.88161358,0.88161358 0 0 1 0,-1.245075 v 0 a 0.88035597,0.88035597 0 0 1 1.245077,0 l 4.0021,4.001846 a 0.5012998,0.5012998 0 0 1 0.146895,0.355665 z m -5.148575,3.734972 a 0.37729543,0.37729543 0 0 0 0.64392,0.266875 l 4.001849,-4.001847 -4.001849,-4.001847 a 0.37729543,0.37729543 0 0 0 -0.533497,0 v 0 a 0.37729543,0.37729543 0 0 0 0,0.533748 l 3.290273,3.290266 a 0.25882463,0.25882463 0 0 1 0,0.355664 l -3.290273,3.290268 a 0.37729543,0.37729543 0 0 0 -0.110423,0.266873 z"
       id="path2"
       style="fill:url(#linearGradient1226);fill-opacity:1.0;stroke-width:0.251531" />
    <path
       d="m 8.5899803,16.238119 a 0.50130644,0.50130644 0 0 1 0.147149,-0.355668 l 4.0018887,-4.001899 a 0.88041463,0.88041463 0 0 1 1.245096,1.245092 l -3.112725,3.112475 3.112725,3.112478 a 0.88212817,0.88212817 0 0 1 0,1.245092 v 0 a 0.8803675,0.8803675 0 0 1 -1.245096,0 L 8.7371293,16.593785 a 0.50130644,0.50130644 0 0 1 -0.147149,-0.355666 z m 5.1486377,-3.735021 a 0.37730039,0.37730039 0 0 0 -0.643925,-0.266879 l -4.0018927,4.0019 4.0018927,4.001899 a 0.3773328,0.3773328 0 1 0 0.533501,-0.533752 l -3.290305,-3.290313 a 0.25882805,0.25882805 0 0 1 0,-0.355668 l 3.290555,-3.29031 a 0.37730039,0.37730039 0 0 0 0.110174,-0.266877 z"
       id="path4-67"
       style="fill:url(#linearGradient1218);fill-opacity:1.0;stroke-width:0.251534" />
    <path
       d="m 16.221968,28.238562 c -2.324077,0 -4.577144,-0.663673 -6.5191877,-1.922453 -0.281627,-0.181221 -0.36,-0.55591 -0.178771,-0.837545 0.18123,-0.279184 0.5559197,-0.360001 0.8375557,-0.178773 1.743673,1.131427 3.768973,1.728979 5.860403,1.728979 5.948569,0 10.790204,-4.839185 10.790204,-10.790203 0,-5.948568 -4.839188,-10.7901995 -10.790204,-10.7901995 -5.948566,0 -10.7902067,4.8416315 -10.7902067,10.7901995 0,2.635101 0.959999,5.172243 2.703679,7.143672 0.220407,0.249796 0.198366,0.631834 -0.05143,0.854689 -0.25225,0.220409 -0.63428,0.198371 -0.854694,-0.05389 -1.939585,-2.191836 -3.007345,-5.015508 -3.007345,-7.944487 0,-6.6171396 5.382853,-11.9999942 11.9999947,-11.9999942 6.617143,0 11.999996,5.3828546 11.999996,11.9999942 0,6.617144 -5.382853,11.999995 -11.999996,11.999995 z"
       id="path6-36-36-3"
       style="fill:url(#linearGradient1210);fill-opacity:1;stroke-width:0.0244899" />
  </g>
</svg>
