<?xml version="1.0" encoding="UTF-8" standalone="no"?>
<svg
   xmlns:dc="http://purl.org/dc/elements/1.1/"
   xmlns:cc="http://creativecommons.org/ns#"
   xmlns:rdf="http://www.w3.org/1999/02/22-rdf-syntax-ns#"
   xmlns:svg="http://www.w3.org/2000/svg"
   xmlns="http://www.w3.org/2000/svg"
   xmlns:xlink="http://www.w3.org/1999/xlink"
   xmlns:sodipodi="http://sodipodi.sourceforge.net/DTD/sodipodi-0.dtd"
   xmlns:inkscape="http://www.inkscape.org/namespaces/inkscape"
   id="svg17"
   width="44"
   height="40"
   version="1.1"
   viewBox="0 0 11.64 10.58"
   sodipodi:docname="busywidget.svg"
   inkscape:version="1.0.1 (3bc2e813f5, 2020-09-07)">
  <metadata
     id="metadata16">
    <rdf:RDF>
      <cc:Work
         rdf:about="">
        <dc:format>image/svg+xml</dc:format>
        <dc:type
           rdf:resource="http://purl.org/dc/dcmitype/StillImage" />
      </cc:Work>
    </rdf:RDF>
  </metadata>
  <defs
     id="defs14">
    <linearGradient
       inkscape:collect="always"
       id="linearGradient861">
      <stop
         style="stop-color:#006eff;stop-opacity:1"
         offset="0"
         id="stop857" />
      <stop
         style="stop-color:#00a4cc;stop-opacity:1"
         offset="1"
         id="stop859" />
    </linearGradient>
    <linearGradient
       inkscape:collect="always"
       id="linearGradient855">
      <stop
         style="stop-color:#006fff;stop-opacity:1"
         offset="0"
         id="stop851" />
      <stop
         style="stop-color:#00a4cc;stop-opacity:1"
         offset="1"
         id="stop853" />
    </linearGradient>
    <linearGradient
       inkscape:collect="always"
       id="linearGradient849">
      <stop
         style="stop-color:#006fff;stop-opacity:1"
         offset="0"
         id="stop845" />
      <stop
         style="stop-color:#00a4cc;stop-opacity:1"
         offset="1"
         id="stop847" />
    </linearGradient>
    <linearGradient
       inkscape:collect="always"
       id="linearGradient848">
      <stop
         style="stop-color:#006fff;stop-opacity:1"
         offset="0"
         id="stop844" />
      <stop
         style="stop-color:#00a4cc;stop-opacity:1"
         offset="1"
         id="stop846" />
    </linearGradient>
    <linearGradient
       inkscape:collect="always"
       xlink:href="#linearGradient849"
       id="linearGradient850"
       x1="0.94045711"
       y1="5.7287898"
       x2="0.8715694"
       y2="9.9842939"
       gradientUnits="userSpaceOnUse" />
    <linearGradient
       inkscape:collect="always"
       xlink:href="#linearGradient855"
       id="linearGradient858"
       x1="1.915482"
       y1="6.4548788"
       x2="3.4179351"
       y2="7.4132075"
       gradientUnits="userSpaceOnUse"
       gradientTransform="rotate(-90,2.8945214,7.7200534)" />
    <linearGradient
       inkscape:collect="always"
       xlink:href="#linearGradient848"
       id="linearGradient866"
       x1="10.08401"
       y1="9.0171518"
       x2="7.9358749"
       y2="6.9520569"
       gradientUnits="userSpaceOnUse" />
    <linearGradient
       inkscape:collect="always"
       xlink:href="#linearGradient861"
       id="linearGradient874"
       x1="7.1596622"
       y1="6.1937099"
       x2="9.0031805"
       y2="7.8253107"
       gradientUnits="userSpaceOnUse"
       gradientTransform="rotate(-90,8.7801242,7.7299924)" />
  </defs>
  <sodipodi:namedview
     pagecolor="#ffffff"
     bordercolor="#666666"
     borderopacity="1"
     objecttolerance="10"
     gridtolerance="10"
     guidetolerance="10"
     inkscape:pageopacity="0"
     inkscape:pageshadow="2"
     inkscape:window-width="1920"
     inkscape:window-height="1009"
     id="namedview12"
     showgrid="false"
     inkscape:zoom="11.101576"
     inkscape:cx="21.113359"
     inkscape:cy="30.226369"
     inkscape:window-x="0"
     inkscape:window-y="0"
     inkscape:window-maximized="1"
     inkscape:current-layer="svg17"
     inkscape:document-rotation="0"
     showguides="false" />
  <rect
     id="hint-rotation-angle"
     style="fill:#00e1e1;fill-opacity:1;opacity:0.001"
     width="3.704"
     height="3.704"
     x="7.9099092"
     y="0" />
  <g
     id="stopped">
    <rect
       id="rect3"
       style="opacity:0.00100002"
       width="5.8200002"
       height="5.8200002"
       x="5.8216181"
       y="4.7591171" />
    <path
       d="m 8.762074,10.375456 c -1.4586877,0 -2.6454544,-1.1867663 -2.6454544,-2.6454539 0,-1.4586877 1.1867667,-2.6454544 2.6454544,-2.6454544 0.085963,0 0.1556149,0.069702 0.1556149,0.1556149 0,0.085912 -0.069652,0.155615 -0.1556149,0.155615 -1.2871161,0 -2.3342245,1.047159 -2.3342245,2.3342245 0,1.2870654 1.0471084,2.3342249 2.3342245,2.3342249 1.287116,0 2.334224,-1.0471595 2.334224,-2.3342249 0,-0.6233717 -0.242793,-1.209562 -0.683652,-1.6505723 -0.06079,-0.060787 -0.06079,-0.1592623 0,-0.2200493 0.06079,-0.060787 0.159364,-0.060787 0.22005,0 0.499669,0.4997713 0.774832,1.1640729 0.774832,1.8706216 0,1.4586876 -1.186766,2.6454539 -2.645454,2.6454539 z"
       id="path2"
       style="fill:url(#linearGradient866);fill-opacity:1;stroke-width:0.103743" />
    <path
       d="m 10.613473,7.7517405 c 0,0.3517546 -0.101616,0.6963162 -0.298364,0.9978202 C 10.047545,9.1595697 9.6364214,9.4408112 9.1573178,9.5415659 9.0732289,9.5592448 8.9906598,9.5053976 8.9730316,9.4213087 8.9548967,9.3370173 9.0090986,9.2547014 9.0932887,9.2370225 9.4910389,9.1533897 9.8323585,8.9198659 10.054434,8.5794581 10.27651,8.2391517 10.352595,7.8326887 10.269114,7.4348371 10.096377,6.6138568 9.2880101,6.0863766 8.466979,6.2590626 8.0692288,6.3426956 7.7279092,6.5762194 7.5058337,6.9166272 7.2837582,7.2569843 7.207673,7.6632952 7.291154,8.0612482 c 0.083684,0.3976995 0.3172073,0.7390191 0.6575136,0.9610946 0.072134,0.046907 0.092295,0.1434068 0.045286,0.2153889 -0.046907,0.071982 -0.1433563,0.092244 -0.2152876,0.045286 C 7.3686575,9.0155042 7.0874159,8.6043302 6.9866106,8.1252772 6.8859067,7.6461736 6.9775943,7.1565842 7.2451584,6.7465245 7.5127229,6.3365156 7.9238463,6.0552736 8.40295,5.9545196 c 0.9889046,-0.208044 1.962714,0.427333 2.170707,1.4162885 0.02664,0.1267918 0.03982,0.2543433 0.03982,0.3809324 z"
       id="path14-6"
       style="fill:url(#linearGradient874);fill-opacity:1;stroke-width:0.103743" />
  </g>
  <g
     id="busywidget">
    <rect
       id="rect8"
       style="opacity:0.00100002;stroke-width:0.264559"
       width="5.8202939"
       height="5.8202939"
       x="4.6e-07"
       y="4.7605429" />
    <path
       d="m 2.8781041,10.365534 c -1.4586877,0 -2.64545445,-1.1867665 -2.64545445,-2.6454541 0,-1.4586877 1.18676675,-2.6454544 2.64545445,-2.6454544 0.085963,0 0.1556149,0.016765 0.1556149,0.1026781 0,0.085912 -0.069766,0.1026437 -0.155729,0.1026437 -0.6767022,0 -1.335538,0.3187236 -1.7830364,0.808075 C 0.69129124,6.5294379 0.43808727,7.10969 0.43808727,7.7200799 c 0,0.6582928 0.2751825,1.2814805 0.74205003,1.7332644 0.4459315,0.4315243 1.0690553,0.7066727 1.6978527,0.7066727 0.648631,0 1.3094152,-0.2927797 1.7528782,-0.7479694 0.4365263,-0.4480695 0.6872891,-1.0535078 0.6872891,-1.6919677 0,-0.6233717 -0.2427271,-1.209562 -0.6835855,-1.6505723 -0.060787,-0.060787 -0.1401513,-0.1592623 -0.079364,-0.2200493 0.060787,-0.060787 0.1065066,-0.060787 0.1671927,0 0.4996699,0.4997713 0.8011582,1.1640729 0.8011582,1.8706216 0,1.4586876 -1.1867668,2.6454541 -2.6454546,2.6454541 z"
       id="path2-7"
       style="fill:url(#linearGradient850);fill-opacity:1;stroke-width:0.103743"
       sodipodi:nodetypes="ssssssssssscscss" />
    <path
       d="m 4.6749735,7.7401686 c 0,0.3517546 -0.1016597,0.6963163 -0.2984073,0.9978202 C 4.1090017,9.1479978 3.7508354,9.3762746 3.2717318,9.4770293 3.1876428,9.4947083 3.1050738,9.4939238 3.0874456,9.4098348 3.0693106,9.3255438 3.0971556,9.2960346 3.1813496,9.2783557 3.402032,9.231954 3.6297579,9.1495965 3.8267074,9.0037575 3.984733,8.8867413 4.1229449,8.7457818 4.2218071,8.5942412 4.4438826,8.2539349 4.5198344,7.8211168 4.4363535,7.4232652 4.3687944,7.1021715 4.1959243,6.7650809 3.961334,6.5482466 3.5961179,6.2106736 3.0813106,6.0894025 2.581393,6.1945493 2.1836428,6.2781822 1.8423232,6.485347 1.6202477,6.8257548 1.5052027,7.0020749 1.415108,7.1643903 1.3665936,7.3863266 c -0.045135,0.2064755 -0.054281,0.4716844 -0.014047,0.66348 0.083684,0.3976995 0.3702282,0.8183818 0.7105345,1.0404573 0.072134,0.046907 0.1187351,0.1169034 0.071726,0.1888854 -0.046907,0.071982 -0.1169542,0.039255 -0.1888855,-0.0077 C 1.5359135,9.0039323 1.2546788,8.5927583 1.1538735,8.1137053 1.0531696,7.6346017 1.1450348,7.1450123 1.4125989,6.7349527 1.6801634,6.3249437 2.0382603,6.0966303 2.517364,5.9958757 3.5062686,5.7878319 4.4272984,6.3702808 4.6352916,7.3592362 c 0.026645,0.1267918 0.039682,0.2543433 0.039682,0.3809324 z"
       id="path14-62"
       style="fill:url(#linearGradient858);fill-opacity:1;stroke-width:0.103743"
       sodipodi:nodetypes="sccccsccsccsccccccccs" />
  </g>
</svg>
