<?xml version="1.0" encoding="UTF-8" standalone="no"?>
<svg
   xmlns:dc="http://purl.org/dc/elements/1.1/"
   xmlns:cc="http://creativecommons.org/ns#"
   xmlns:rdf="http://www.w3.org/1999/02/22-rdf-syntax-ns#"
   xmlns:svg="http://www.w3.org/2000/svg"
   xmlns="http://www.w3.org/2000/svg"
   xmlns:sodipodi="http://sodipodi.sourceforge.net/DTD/sodipodi-0.dtd"
   xmlns:inkscape="http://www.inkscape.org/namespaces/inkscape"
   viewBox="0 0 22 22"
   version="1.1"
   id="svg6"
   sodipodi:docname="bookmark-new.svg"
   inkscape:version="1.0.2 (e86c870879, 2021-01-15)">
  <metadata
     id="metadata10">
    <rdf:RDF>
      <cc:Work
         rdf:about="">
        <dc:format>image/svg+xml</dc:format>
        <dc:type
           rdf:resource="http://purl.org/dc/dcmitype/StillImage" />
      </cc:Work>
    </rdf:RDF>
  </metadata>
  <sodipodi:namedview
     pagecolor="#ffffff"
     bordercolor="#666666"
     borderopacity="1"
     objecttolerance="10"
     gridtolerance="10"
     guidetolerance="10"
     inkscape:pageopacity="0"
     inkscape:pageshadow="2"
     inkscape:window-width="1920"
     inkscape:window-height="1007"
     id="namedview8"
     showgrid="true"
     inkscape:zoom="28.545455"
     inkscape:cx="5.3423567"
     inkscape:cy="11"
     inkscape:window-x="0"
     inkscape:window-y="0"
     inkscape:window-maximized="1"
     inkscape:current-layer="svg6">
    <inkscape:grid
       type="xygrid"
       id="grid858" />
  </sodipodi:namedview>
  <defs
     id="defs3051">
    <style
       type="text/css"
       id="current-color-scheme">
      .ColorScheme-Text {
        color:#232629;
      }
      </style>
  </defs>
  <g
     id="g4"
     transform="translate(-1.104,1)">
    <path
       d="M 18.745633,0 H 5.5053985 C 4.4318439,0 3.554,0.87784392 3.554,1.952214 V 18.047786 C 3.554,19.122156 4.4318439,20 5.5053985,20 H 18.745633 c 1.073555,0 1.951399,-0.877844 1.951399,-1.952214 V 1.952214 C 20.697032,0.87784392 19.819188,0 18.745633,0 Z M 15.39735,15.987523 12.12572,14.2669 8.8540897,15.987523 9.4791407,12.344451 6.8321538,9.7643317 10.489905,9.2310201 12.12572,5.9178015 l 1.634999,3.3132186 3.658975,0.5333116 -2.64658,2.5801193 z M 19.268344,4.4047134 H 4.9826879 V 1.952214 c 0,-0.2837805 0.2389301,-0.5235261 0.5227106,-0.5235261 H 18.744818 c 0.282557,0 0.522711,0.2397456 0.522711,0.5235261 v 2.4524994 z"
        class="ColorScheme-Text"
       id="path2"
       style="fill:currentColor;fill-opacity:1;stroke:none" />
  </g>
</svg>
